<?xml version="1.0" encoding="UTF-8"?>
<svg width="856px" height="496px" viewBox="0 0 856 496" version="1.1" xmlns="http://www.w3.org/2000/svg" xmlns:xlink="http://www.w3.org/1999/xlink">
    <title>undraw_image_viewer_wxce</title>
    <g id="Final" stroke="none" stroke-width="1" fill="none" fill-rule="evenodd">
        <g id="Connection" transform="translate(-292.000000, -260.000000)" fill-rule="nonzero">
            <g id="undraw_image_viewer_wxce" transform="translate(292.000000, 260.000000)">
                <rect id="Rectangle" fill="#3F3D56" x="0" y="339.20986" width="856" height="2"></rect>
                <path d="M618.98251,480.41949 L48.29076,480.41949 C37.7224599,480.41949 29.15516,471.85219 29.15516,461.28389 L29.15516,461.28389 C236.030807,437.240977 439.018473,437.240977 638.11816,461.28389 L638.11816,461.28389 C638.11816,466.358975 636.102087,471.226198 632.513455,474.81482 C628.924823,478.403443 624.057595,480.41949 618.98251,480.41949 L618.98251,480.41949 Z" id="Path" fill="#2F2E41"></path>
                <path d="M638.11811,462.40949 L29.15516,461.28384 L99.73184,342.53044 L100.06952,341.96762 L100.06952,80.24862 C100.068984,73.832959 102.617358,67.679913 107.153916,63.1433557 C111.690473,58.6067983 117.843519,56.0589599 124.25918,56.0589599 L539.63718,56.0589599 C546.052841,56.0589599 552.205887,58.6067983 556.742444,63.1433557 C561.279002,67.679913 563.827376,73.832959 563.82684,80.24862 L563.82684,343.76862 L638.11811,462.40949 Z" id="Path" fill="#3F3D56"></path>
                <path d="M123.70764,72.94336 C119.358002,72.9482317 115.833137,76.473092 115.82826,80.82273 L115.82826,319.45516 C115.833335,323.804716 119.358084,327.32946 123.70764,327.33453 L543.56564,327.33453 C547.915114,327.329268 551.439748,323.804634 551.44501,319.45516 L551.44501,80.82273 C551.43994,76.4731758 547.915194,72.9484297 543.56564,72.94336 L123.70764,72.94336 Z" id="Path" fill="#FFFFFF"></path>
                <path d="M125.467,358.852005 C124.148974,358.854249 122.952001,359.621065 122.399,360.81747 L100.65213,408.09371 C100.171036,409.139181 100.255532,410.357691 100.876322,411.326752 C101.497113,412.295814 102.568708,412.88201 103.71956,412.88201 L561.0447,412.88201 C562.215053,412.88201 563.301933,412.275922 563.917098,411.280283 C564.532263,410.284643 564.58797,409.04145 564.06432,407.99478 L540.4262,360.71854 C539.857355,359.57199 538.686481,358.848237 537.40658,358.852005 L125.467,358.852005 Z" id="Path" fill="#2F2E41"></path>
                <circle id="Oval" fill="#FFFFFF" cx="331.9482" cy="63.93836" r="5.06531"></circle>
                <path d="M286.99686,421.88701 C285.470836,421.88892 284.135125,422.912546 283.73651,424.38559 L278.28151,444.64683 C278.008128,445.661249 278.222514,446.745121 278.861499,447.579077 C279.500484,448.413033 280.491249,448.902 281.54186,448.902 L385.28346,448.902 C386.375752,448.902 387.400555,448.373565 388.03397,447.483684 C388.667385,446.593804 388.831133,445.452461 388.47346,444.42039 L381.4603,424.15914 C380.989009,422.799471 379.708223,421.887527 378.26919,421.88701 L286.99686,421.88701 Z" id="Path" fill="#2F2E41"></path>
                <polygon id="Path" fill="#2F2E41" points="563.827 338.028 563.827 342.53 99.732 342.53 100.081 341.968 100.081 338.028"></polygon>
                <path d="M813.59269,280.95807 L813.59269,280.95807 C816.818252,281.272759 820.026679,280.210378 822.427006,278.032832 C824.827333,275.855286 826.19623,272.765176 826.19623,269.5243 L826.19623,245.04539 L810.18662,243.12424 L803.64762,266.41957 C802.728868,269.692618 803.306937,273.204503 805.226304,276.010386 C807.14567,278.816269 810.209203,280.627971 813.59269,280.95807 L813.59269,280.95807 Z" id="Path" fill="#FFB8B8"></path>
                <path d="M675.12522,292.34035 L675.12522,292.34035 C678.350343,292.0212 681.290627,290.354653 683.221216,287.751559 C685.151804,285.148464 685.893073,281.851015 685.26228,278.67212 L680.49775,254.66137 L664.4204,255.89303 L662.54057,280.01559 C662.276449,283.404871 663.527014,286.737082 665.955811,289.115722 C668.384609,291.494362 671.742188,292.67513 675.12522,292.34035 L675.12522,292.34035 Z" id="Path" fill="#FFB8B8"></path>
                <path d="M720.53285,473.66259 L739.2423,474.46233 C735.24054,398.84233 736.48741,334.87579 747.42899,292.43383 C761.04605,340.88967 765.72884,404.47795 766.08878,475.38808 L786.49243,473.66259 C795.21343,389.69368 799.63618,312.0594 790.33474,254.65116 C761.15014,237.69557 728.83227,237.64386 692.99633,256.57231 C692.19258,320.88364 703.22225,394.73999 720.53285,473.66259 Z" id="Path" fill="#2F2E41"></path>
                <path d="M723.949,469.77136 L716.0105,472.41753 C716.0105,472.41753 699.25144,468.00725 703.66172,479.47397 C708.072,490.94069 720.42077,489.17658 720.42077,489.17658 C720.42077,489.17658 735.41577,500.6433 741.5901,491.82275 L738.06188,473.29958 L723.949,469.77136 Z" id="Path" fill="#2F2E41"></path>
                <path d="M779.87439,469.77136 L787.81289,472.41753 C787.81289,472.41753 804.57194,468.00725 800.16166,479.47397 C795.75138,490.94069 783.40261,489.17658 783.40261,489.17658 C783.40261,489.17658 768.40767,500.6433 762.23328,491.82275 L765.7615,473.29958 L779.87439,469.77136 Z" id="Path" fill="#2F2E41"></path>
                <circle id="Oval" fill="#FFB8B8" cx="716.05016" cy="33.07819" r="26.25576"></circle>
                <path d="M712.84824,85.5897 L752.55207,74.70317 C742.50607,62.38699 738.86456,48.46155 741.02515,33.07817 L712.84824,33.07817 L712.84824,85.5897 Z" id="Path" fill="#FFB8B8"></path>
                <path d="M690.43479,262.33577 C725.91057,249.25565 760.65795,246.82064 794.17705,262.33577 C784.48772,198.60938 781.41805,141.10742 791.78163,101.1154 C793.882073,93.1190091 789.873197,84.7795027 782.31647,81.4254 L746.78861,65.73784 L712.84824,70.86084 L684.19692,91.65615 C677.978956,96.1648341 675.609036,104.315416 678.44,111.45523 C693.53684,149.48526 696.30476,201.13826 690.43479,262.33577 Z" id="Path" fill="#48889B"></path>
                <path d="M809.54627,245.04539 L828.11741,246.96655 L809.18371,113.34869 C807.056781,98.3386466 796.512543,85.8772691 782.06158,81.29525 L779.44821,80.46663 L783.29051,152.18963 L809.54627,245.04539 Z" id="Path" fill="#48889B"></path>
                <path d="M681.62546,257.73848 L663.5936,262.57894 L661.10908,127.64916 C660.829979,112.491741 669.265759,98.5165998 682.80778,91.70199 L685.25678,90.46961 L692.83138,161.89498 L681.62546,257.73848 Z" id="Path" fill="#48889B"></path>
                <path d="M741.90039,52.93215 C741.90039,52.93215 763.42772,26.83509 743.411,7.75533 C729.52454,-5.48113 709.83063,1.11605 699.07029,6.39841 C693.162955,9.20352615 689.014594,14.7363111 687.97757,21.19308 C687.26083,26.13308 688.44394,30.56608 696.0433,28.53788 C711.24204,24.48151 706.68494,37.90874 706.68494,37.90874 C706.68494,37.90874 717.49349,37.73762 717.32658,47.27961 C717.15967,56.8216 741.90039,52.93215 741.90039,52.93215 Z" id="Path" fill="#2F2E41"></path>
            </g>
        </g>
    </g>
</svg>