<?xml version="1.0" encoding="UTF-8"?>
<svg width="384px" height="280px" viewBox="0 0 384 280" version="1.1" xmlns="http://www.w3.org/2000/svg" xmlns:xlink="http://www.w3.org/1999/xlink">
    <title>undraw_browsing_online_sr8c</title>
    <g id="Final" stroke="none" stroke-width="1" fill="none" fill-rule="evenodd">
        <g id="Index-Test" transform="translate(-913.000000, -527.000000)" fill-rule="nonzero">
            <g id="Section1" transform="translate(0.000000, 467.000000)">
                <g id="undraw_browsing_online_sr8c" transform="translate(913.000000, 60.000000)">
                    <path d="M363.903249,232.903962 C363.477961,248.547631 360.816877,264.054316 355.998434,278.966966 C355.88828,279.313032 355.772882,279.653933 355.657483,280 L326.157362,280 C326.188834,279.69009 326.220307,279.344023 326.251779,278.966966 C328.218804,256.699909 339.559355,121.176127 326,98 C327.18546,99.8801019 366.190232,162.151415 363.903249,232.903962 Z" id="Path" fill="#E6E6E6"></path>
                    <path d="M361.403775,278.970412 C361.162543,279.315324 360.911046,279.660236 360.654416,280 L339,280 C339.164243,279.706568 339.354149,279.361656 339.574851,278.970412 C343.152269,272.494306 353.740812,253.13291 363.56973,233.061099 C374.13261,211.491238 383.822948,189.102855 383.006866,181 C383.258337,182.827513 390.567147,238.538485 361.403775,278.970412 Z" id="Path" fill="#484848"></path>
                    <path d="M29.0458292,256.969524 C29.2472836,264.619449 30.5077973,272.202387 32.7902172,279.494835 C32.8423876,279.664058 32.897058,279.830771 32.9517132,280 L46.9254614,280 C46.9105578,279.848438 46.8956339,279.679214 46.8807251,279.494835 C45.9489803,268.605969 40.5771575,202.333387 47,191 C46.5747695,191.696232 35.8762131,209.328073 31.1781197,232.871691 C29.6722738,240.417957 28.7828845,248.571569 29.0458292,256.969524 Z" id="Path" fill="#E6E6E6"></path>
                    <path d="M29.0470381,279.490406 C29.1649848,279.661113 29.2879349,279.831826 29.4133995,280 L40,280 C39.9196994,279.854764 39.826862,279.684051 39.7189631,279.490406 C37.9699966,276.285054 32.7933909,266.702144 27.9881348,256.767617 C22.8240607,246.091619 18.0865583,235.010505 18.4855418,231 C18.3625866,231.904528 14.7893922,259.478643 29.0470381,279.490406 Z" id="Path" fill="#E6E6E6"></path>
                    <path d="M300.250007,280 L151.749993,280 C150.231953,279.998231 149.001783,278.777839 149,277.271864 L149,240.728136 C149.001786,239.222162 150.231954,238.001771 151.749993,238 L300.250007,238 C301.768046,238.001771 302.998214,239.222162 303,240.728136 L303,277.271864 C302.998217,278.777839 301.768047,279.998231 300.250007,280 L300.250007,280 Z M151.749993,239.091238 C150.839125,239.092231 150.099981,239.824523 150.099981,240.728151 L150.099981,277.271879 C150.099981,278.175508 150.839125,278.9078 151.749993,278.908777 L300.250007,278.908777 C301.160875,278.9078 301.900019,278.175508 301.900019,277.271879 L301.900019,240.728136 C301.900019,239.824507 301.160875,239.092215 300.250007,239.091238 L151.749993,239.091238 Z" id="Shape" fill="#E6E6E6"></path>
                    <circle id="Oval" fill="#6B5915" cx="176" cy="257" r="11"></circle>
                    <path d="M200.848734,249 C199.82721,249.001833 199,249.896726 199,251 C199,252.103274 199.82721,252.998167 200.848734,253 L288.148193,253 C289.170918,253 290,252.104569 290,251 C290,249.895431 289.170918,249 288.148193,249 L200.848734,249 Z" id="Path" fill="#E6E6E6"></path>
                    <path d="M200.839741,261 C199.82368,261 199,261.895431 199,263 C199,264.104569 199.82368,265 200.839741,265 L238.160259,265 C239.17632,265 240,264.104569 240,263 C240,261.895431 239.17632,261 238.160259,261 L200.839741,261 Z" id="Path" fill="#E6E6E6"></path>
                    <path d="M338.250007,225 L189.749993,225 C188.231953,224.998231 187.001783,223.777839 187,222.271864 L187,185.728136 C187.001786,184.222162 188.231954,183.001771 189.749993,183 L338.250007,183 C339.768046,183.001771 340.998214,184.222162 341,185.728136 L341,222.271864 C340.998217,223.777839 339.768047,224.998231 338.250007,225 Z M189.749993,184.091238 C188.839125,184.092231 188.099981,184.824523 188.099981,185.728151 L188.099981,222.271879 C188.099981,223.175508 188.839125,223.9078 189.749993,223.908777 L338.250007,223.908777 C339.160875,223.9078 339.900019,223.175508 339.900019,222.271879 L339.900019,185.728136 C339.900019,184.824507 339.160875,184.092215 338.250007,184.091238 L189.749993,184.091238 Z" id="Shape" fill="#E6E6E6"></path>
                    <circle id="Oval" fill="#48889B" cx="212" cy="203" r="11"></circle>
                    <path d="M238.848734,194 C237.82721,194.001833 237,194.896726 237,196 C237,197.103274 237.82721,197.998167 238.848734,198 L326.148193,198 C327.170918,198 328,197.104569 328,196 C328,194.895431 327.170918,194 326.148193,194 L238.848734,194 Z" id="Path" fill="#E6E6E6"></path>
                    <path d="M238.839741,206 C237.82368,206 237,206.895431 237,208 C237,209.104569 237.82368,210 238.839741,210 L276.160259,210 C277.17632,210 278,209.104569 278,208 C278,206.895431 277.17632,206 276.160259,206 L238.839741,206 Z" id="Path" fill="#E6E6E6"></path>
                    <path d="M309.250007,133 L160.749993,133 C159.231953,132.99821 158.001783,131.763277 158,130.239359 L158,2.76064071 C158.001786,1.23672402 159.231954,0.0017924377 160.749993,0 L309.250007,0 C310.768046,0.0017924377 311.998214,1.23672402 312,2.76064071 L312,130.239359 C311.998217,131.763277 310.768047,132.99821 309.250007,133 L309.250007,133 Z M160.749993,1.10423974 C159.839125,1.10423974 159.099981,1.8462612 159.099981,2.76065622 L159.099981,130.239359 C159.099981,131.153754 159.839125,131.89576 160.749993,131.89576 L309.250007,131.89576 C310.160875,131.89576 310.900019,131.153754 310.900019,130.239359 L310.900019,2.76064071 C310.900019,1.84624569 310.160875,1.10423974 309.250007,1.10423974 L160.749993,1.10423974 Z" id="Shape" fill="#E6E6E6"></path>
                    <circle id="Oval" fill="#6B5915" cx="183" cy="110" r="11"></circle>
                    <path d="M209.851745,103 C208.829054,103 208,103.895431 208,105 C208,106.104569 208.829054,107 209.851745,107 L297.148255,107 C298.170946,107 299,106.104569 299,105 C299,103.895431 298.170946,103 297.148255,103 L209.851745,103 Z" id="Path" fill="#E6E6E6"></path>
                    <path d="M209.839741,113 C208.82368,113 208,113.895431 208,115 C208,116.104569 208.82368,117 209.839741,117 L247.160259,117 C248.17632,117 249,116.104569 249,115 C249,113.895431 248.17632,113 247.160259,113 L209.839741,113 Z" id="Path" fill="#E6E6E6"></path>
                    <rect id="Rectangle" fill="#3F3D56" x="0" y="279" width="380" height="1"></rect>
                    <path d="M344.250007,88 L195.749998,88 C194.231957,87.998209 193.001786,86.7622871 193,85.2371473 L193,19.7628578 C193.001783,18.2377161 194.231955,17.001791 195.749998,17 L344.250007,17 C345.768048,17.0017939 346.998217,18.2377181 347,19.7628578 L347,85.237137 C346.99822,86.7622788 345.76805,87.9982061 344.250007,88 L344.250007,88 Z" id="Path" fill="#48889B"></path>
                    <path d="M225.85476,40 C225.192485,39.9988146 224.580047,40.3797518 224.248592,40.9990411 C223.917136,41.6183305 223.917136,42.3816695 224.248592,43.0009589 C224.580047,43.6202482 225.192485,44.0011854 225.85476,44 L313.148318,44 C314.170974,44 315,43.104568 315,42 C315,40.895432 314.170974,40 313.148318,40 L225.85476,40 Z" id="Path" fill="#FFFFFF"></path>
                    <path d="M225.85476,51 C225.192485,50.9988146 224.580047,51.3797518 224.248592,51.9990411 C223.917136,52.6183305 223.917136,53.3816695 224.248592,54.0009589 C224.580047,54.6202482 225.192485,55.0011854 225.85476,55 L313.148318,55 C314.170974,55 315,54.104568 315,53 C315,51.895432 314.170974,51 313.148318,51 L225.85476,51 Z" id="Path" fill="#FFFFFF"></path>
                    <path d="M225.839741,62 C224.82368,62 224,62.8954305 224,64 C224,65.1045695 224.82368,66 225.839741,66 L263.160259,66 C264.17632,66 265,65.1045695 265,64 C265,62.8954305 264.17632,62 263.160259,62 L225.839741,62 Z" id="Path" fill="#FFFFFF"></path>
                    <path d="M74,64.5559507 C88.1568587,58.5001307 105.789455,62.337035 123.009571,65 C123.169814,61.775145 125.112163,57.8503182 123.077532,55.6004692 C120.605633,52.8671094 120.833189,49.9951399 122.320653,47.1066163 C126.124344,39.720207 120.674711,31.8606584 115.172255,25.3255373 C112.656839,22.3447389 108.878326,20.7497407 105.001093,21.0320529 L94.8082411,21.7642783 C89.7290374,22.1291436 85.4086339,25.6266471 83.9690084,30.5389805 L83.9690084,30.5389805 C81.5351628,33.8680013 80.2325166,37.1878104 81.0526711,40.4903301 C77.4071594,42.9958685 76.7946667,46.0203093 78.4328237,49.4298272 C79.8219038,51.5765823 79.8071172,53.6662604 78.3696251,55.6981003 C76.4817757,58.2885449 75.0358464,61.176969 74.0911191,64.24495 L74,64.5559507 Z" id="Path" fill="#2F2E41"></path>
                    <path d="M147.390904,108.783605 L117.379887,125 L117,111.486356 C126.795371,109.824366 136.114682,106.93073 144.731681,102.219856 L147.870444,94.338324 C148.56625,92.5911344 150.116374,91.3458544 151.949654,91.0613233 C153.782933,90.7767922 155.628078,91.4951151 156.805221,92.9516166 L156.805221,92.9516166 C158.561962,95.1252659 158.35956,98.3110334 156.342358,100.236998 L147.390904,108.783605 Z" id="Path" fill="#FFB8B8"></path>
                    <path d="M72.2125738,202.559554 L72.2125738,202.559554 C71.759382,200.900008 72.0381591,199.126186 72.978666,197.685009 L79.7253067,187.346822 C83.0310709,182.281237 89.6425126,180.539641 95.0207673,183.317667 L95.0207673,183.317667 C92.1853585,188.136694 92.580616,192.364228 96,196.038111 C90.6918043,198.625521 85.7857916,201.965011 81.4339559,205.953119 C79.8220045,207.050352 77.7782525,207.301827 75.9477351,206.628178 C74.1172177,205.954528 72.7257784,204.438866 72.2125738,202.559554 Z" id="Path" fill="#2F2E41"></path>
                    <path d="M148.35705,188.076975 L148.35705,188.076975 C146.289955,191.515825 142.578092,193.632168 138.560494,193.662547 L93.9353425,194 L92,182.795453 L111.740701,177 L95.0965688,164.249995 L113.28896,143 L146.332026,173.74102 C150.312052,177.443742 151.15625,183.42016 148.35705,188.076975 Z" id="Path" fill="#2F2E41"></path>
                    <path d="M86.8953951,265 L76.4517307,265 C67.0748376,201.05611 57.5300432,136.933431 85.7349902,113 L119,118.387344 L114.745174,146.478468 L96.1786546,167.643021 L86.8953951,265 Z" id="Path" fill="#2F2E41"></path>
                    <path d="M95.5670495,278.796228 L95.5670495,278.796228 C93.9101993,279.230559 92.1392146,278.963541 90.7002998,278.062449 L79.3387949,276.594551 C74.2811742,273.427324 72.5419919,267.092486 75.3152229,261.939 L75.3152229,261.939 C80.1266686,264.655576 84.3473754,264.276588 88.0151464,261 C90.6067041,266.029673 94.8766491,265.722883 98.9546102,269.960314 C100.050167,271.504789 100.301355,273.463051 99.6288981,275.217049 C98.9564408,276.971047 97.443303,278.304378 95.5670495,278.796228 Z" id="Path" fill="#2F2E41"></path>
                    <path d="M112,70 L93,65.304343 C96.1555954,58.6529264 96.4154511,51.2518785 94.8999786,43.3913052 L107.819976,43 C108.224817,52.7748362 109.449564,61.9069926 112,70 Z" id="Path" fill="#FFB8B8"></path>
                    <path d="M118.024737,130.104392 C104.018514,139.620685 94.122117,130.429981 86.5700094,116.249936 C87.6194312,107.573037 85.920243,97.1893303 82.7732266,85.9066355 C79.8718741,75.5903454 85.3638767,64.7748183 95.4205351,61 L95.4205351,61 L111.967211,67.9062684 C126.017246,79.3251434 128.782691,91.6940689 123.511403,104.739563 L118.024737,130.104392 Z" id="Path" fill="#48889B"></path>
                    <path d="M76.7854444,79.7099578 L61.2787867,87.7565271 L88.8031023,103.849661 L92.6329286,113.187014 C93.1495288,114.446511 93.1197461,115.860503 92.5505593,117.097658 C91.9813725,118.334813 90.9228064,119.286401 89.6229066,119.729443 L89.6229066,119.729443 C88.1407207,120.234614 86.5047449,120.024913 85.2019611,119.162762 C83.8991773,118.300611 83.0798006,116.885418 82.9877352,115.338445 L82.6004424,108.830864 L47.6173763,97.4203522 C45.2291096,96.6413653 43.336122,94.8198323 42.4842601,92.4809955 L42.4842601,92.4809955 C41.223945,89.0207498 42.4850443,85.1557452 45.5532268,83.0752573 L73.6841222,64 L76.7854444,79.7099578 Z" id="Path" fill="#FFB8B8"></path>
                    <path d="M92,82.3144611 C85.5123512,79.5096302 79.6129842,82.5565231 72.1666693,85 L71,64.6666359 C78.393876,60.7789061 85.4434358,59.7307131 92,62.7484159 L92,82.3144611 Z" id="Path" fill="#48889B"></path>
                    <ellipse id="Oval" fill="#FFB8B8" cx="101" cy="41.5" rx="12" ry="12.5"></ellipse>
                    <path d="M115,40.6496934 C102.994598,41.9086626 93.84658,39.8063879 88,33.8205639 L88,29 L113.981132,29 L115,40.6496934 Z" id="Path" fill="#2F2E41"></path>
                </g>
            </g>
        </g>
    </g>
</svg>