<?xml version="1.0" encoding="UTF-8"?>
<svg width="283px" height="294px" viewBox="0 0 283 294" version="1.1" xmlns="http://www.w3.org/2000/svg" xmlns:xlink="http://www.w3.org/1999/xlink">
    <title>undraw_businessman_97x4</title>
    <defs>
        <linearGradient x1="50.0016081%" y1="100.000291%" x2="50.0016081%" y2="-0.00295697249%" id="linearGradient-1">
            <stop stop-color="#808080" stop-opacity="0.25" offset="0%"></stop>
            <stop stop-color="#808080" stop-opacity="0.12" offset="54%"></stop>
            <stop stop-color="#808080" stop-opacity="0.1" offset="100%"></stop>
        </linearGradient>
    </defs>
    <g id="Final" stroke="none" stroke-width="1" fill="none" fill-rule="evenodd">
        <g id="Index-Suite" transform="translate(-145.000000, -99.000000)" fill-rule="nonzero">
            <g id="Group-2" transform="translate(145.000000, 99.000000)">
                <g id="undraw_businessman_97x4">
                    <ellipse id="Oval" fill="#48889B" opacity="0.1" cx="127.5" cy="278.5" rx="98.5" ry="15.5"></ellipse>
                    <path d="M152.808193,77.2756585 C152.808193,77.2756585 149.753113,70.4285028 150.165436,68.3931609 C150.577758,66.357819 148.016166,62.0105941 148.016166,62.0105941 L148.181744,54.7984043 C148.181744,54.7984043 147.827861,55.5358471 145.983775,56.1811094 C145.827937,55.948815 145.659112,55.7202077 145.483794,55.5026621 C144.816009,54.7128482 144.073437,54.0092388 143.269591,53.4046376 L140.02296,45.4476306 L136.883468,39.9868673 C136.883468,39.9868673 131.932356,28.5565051 126.818912,26.034451 L126.013748,24.2461524 C126.068673,24.2092881 126.08979,24.1309449 126.062447,24.065479 L125.244296,22.2476826 C125.214044,22.1825737 125.145381,22.1539274 125.085211,22.1813128 L124.302773,20.440948 C124.003937,18.1855643 123.2237,16.0474874 122.030132,14.2132442 C121.948966,14.0841917 121.861307,13.9662009 121.776894,13.8445228 L123.049574,13.7929019 C124.166415,13.7449681 125.413121,13.6343517 126.163093,12.6867378 C126.431873,12.3335401 126.63013,11.918437 126.74424,11.4699573 C126.84075,11.1184958 126.903877,10.7563173 126.932544,10.3896037 C126.932544,10.3342955 126.932544,10.2789873 126.932544,10.2273663 C126.932544,10.102001 126.932544,9.97909392 126.932544,9.85864494 C126.932544,9.75909017 126.932544,9.66322262 126.932544,9.56366785 C126.932544,9.46411309 126.932544,9.40511767 126.932544,9.32768618 C126.932544,9.2502547 126.896831,9.07326844 126.877352,8.95896482 C126.877352,8.91103104 126.877352,8.86309727 126.851379,8.81516349 C126.82432,8.67072278 126.790727,8.52796129 126.750733,8.38744671 C126.741236,8.35988895 126.733637,8.33153504 126.728007,8.3026408 C126.682554,8.15515226 126.633854,8.00766371 126.578662,7.86386238 C126.569734,7.84490563 126.562135,7.82517945 126.555935,7.80486696 C126.497496,7.66106563 126.432563,7.52095152 126.364384,7.38452461 L126.344904,7.34027805 L126.344904,7.34027805 C126.321014,7.28304797 126.293902,7.22762502 126.263738,7.17435344 C125.383901,5.60360044 123.838505,4.68548425 122.367781,3.85586119 C120.995385,3.03638036 119.586635,2.2979539 118.147161,1.64353303 C112.794901,-0.636056594 106.882807,-0.541265172 101.589343,1.90901241 C101.066526,2.13384679 100.571182,2.43371589 100.115372,2.8013181 C99.4800255,3.41209726 98.9371333,4.13702831 98.5082901,4.94727642 L95.992151,9.169136 C95.6405535,9.68270966 95.3652851,10.2581363 95.1772467,10.8726287 C94.7064852,12.8784729 96.1837023,14.8880043 96.0181241,16.9565311 C95.9337117,17.9852637 95.446717,18.9291904 95.3525647,19.957923 C95.2324394,21.2853199 95.7746268,22.564783 96.3038276,23.7631274 L99.9043414,31.8749974 C99.7127902,32.9406021 99.5017591,34.0320173 99.2712483,35.0865604 L99.2712483,35.0865604 C97.6122199,37.0334092 97.0537994,38.0953267 96.9012077,38.670532 L96.8525083,38.7000297 L96.8525083,38.7000297 C96.5239298,38.9410224 96.241299,39.2544844 96.0213707,39.6218331 L92.5994217,43.3975399 C92.5994217,43.3975399 86.6515937,45.1526536 85.4146273,47.3760434 C85.4146273,47.3760434 76.0805632,46.9114544 76.161729,61.7156171 C76.161729,61.7156171 75.7494069,67.2685607 75.5124028,68.0096907 C75.2753988,68.7508206 75.5124028,76.2432387 75.5124028,76.2432387 L75.4020174,91.4198099 C75.4020174,91.4198099 75.044888,99.4689971 75.4020174,102.337649 C75.7591468,105.206302 76.1714689,116.124141 76.1714689,116.124141 C76.1714689,116.124141 78.4019044,126.765439 77.5772601,130.559582 C76.7850822,134.191488 77.5772601,142.133746 78.8759125,142.166931 C79.1226565,142.745823 79.4051134,143.029739 79.7135433,142.867501 C79.8477949,142.801425 79.9854952,142.744781 80.1258654,142.697889 L80.1258654,151.764748 C80.1258654,151.764748 78.5187831,164.467199 80.3206633,166.882323 C79.1259031,168.814423 77.7233585,172.110792 77.3662291,172.977288 L64.7368346,172.20666 L63.1297523,172.719183 L63.1297523,172.719183 L61.6557818,173.187459 L60.7629583,196.516459 L61.1200877,196.545957 L61.0941146,197.257589 L61.9382387,197.327646 L60.7629583,220.822571 L78.2460661,222.456007 C77.4766146,224.413917 76.583791,226.511942 76.2364015,226.714739 C75.5870753,227.08346 74.1715442,225.977296 73.8403879,226.43451 C73.5092315,226.891725 72.5190091,227.452181 71.3632084,227.171953 C70.2074078,226.891725 69.4639293,228.373985 69.4639293,228.373985 C69.4639293,228.373985 69.6327541,228.543597 69.8859913,228.85701 C68.0094386,228.598905 65.6361514,229.741941 64.3472389,230.479384 C63.7693386,230.811233 63.4089625,231.058276 63.4089625,231.058276 L60,231.058276 L61.8733061,244.63091 L63.1946849,245.655955 L63.519348,256.348874 C63.519348,256.348874 68.8048632,274.854999 71.2268499,274.733321 C71.5450698,274.720509 71.8425875,274.55089 72.0417543,274.268732 C73.3404067,272.56524 72.4410899,266.713632 72.4410899,266.713632 L72.4410899,256.972013 C72.4410899,256.972013 74.4215348,255.98384 74.2007639,255.24271 C73.979993,254.50158 77.3954488,246.393398 77.7006321,245.655955 C77.7184366,245.643471 77.7284941,245.620626 77.7266052,245.596959 C77.7266052,244.763649 79.2135621,243.838159 79.1291497,243.469437 C79.0447373,243.100716 82.7653764,240.785146 83.0251069,238.749804 C83.2848374,236.714462 85.7490303,237.824313 85.7490303,237.824313 L88.8852758,233.731506 C88.9794281,238.720306 89.1579928,242.212097 89.4664228,243.097029 C90.9533798,247.35576 91.5312801,254.018555 91.5312801,254.018555 C91.5312801,254.018555 90.6222234,259.10691 91.5312801,260.773531 C92.0897006,261.791202 93.388353,262.882617 94.2909164,263.785984 C93.3526401,267.015983 93.4857519,273.881575 93.4857519,273.881575 L93.4857519,277.826894 L100.423802,280.039222 C100.423802,280.039222 100.641327,278.066562 100.972483,278.066562 C101.303639,278.066562 105.709318,281.890203 105.709318,281.890203 C105.709318,281.890203 122.669718,282.137246 126.961764,281.890203 C128.585079,281.798023 129.026621,281.005272 128.776631,280.046596 C128.364309,278.450033 126.049461,276.381506 123.991097,276.222956 C120.686026,275.975912 116.501119,272.030594 116.501119,272.030594 C116.501119,272.030594 116.825782,271.164099 115.069355,269.932569 C113.855115,269.08451 110.494852,265.651714 108.417008,263.642183 C108.514407,263.491007 108.615052,263.339831 108.709205,263.177594 C108.709205,263.177594 105.900869,258.752938 106.482016,256.79134 C107.063163,254.829742 106.232025,251.997962 106.232025,251.997962 C106.232025,251.997962 104.663902,246.537199 104.663902,243.760727 C104.663902,242.001926 104.430145,231.998516 104.26132,224.904317 L105.709318,225.040744 L105.738537,224.332799 L106.387863,224.399168 L112.527243,225.040744 L112.338938,217.588885 C115.296619,216.113999 117.757565,214.746043 118.777007,213.872174 C122.244409,210.922403 125.218323,210.72698 125.218323,210.72698 C125.218323,210.72698 132.237539,206.471936 133.312174,204.713135 C134.386809,202.954334 134.286163,190.185513 134.286163,190.185513 L133.708263,162.819014 L133.708263,162.796891 C133.708263,162.796891 133.214775,149.567168 132.221306,146.698516 C131.857683,145.636599 130.958367,142.096874 129.974638,138.055688 C130.540034,137.989553 131.110887,138.016877 131.669379,138.136806 C131.705092,139.124979 131.727818,139.803427 131.727818,140.035721 C131.727818,141.606474 133.708263,142.941246 133.708263,142.941246 L132.305719,107.543995 L132.305719,83.4628029 C136.630231,85.0261815 147.087629,85.5128937 147.087629,85.5128937 C154.62306,85.0630536 152.808193,77.2756585 152.808193,77.2756585 Z M112.017522,46.8635207 L111.994795,46.8635207 C112.148328,45.9355078 112.34887,45.0183262 112.595422,44.1165465 L112.017522,46.8635207 Z M83.6354735,168.272403 C86.1970654,168.751741 89.1547462,168.611627 89.3787637,168.047483 C89.4014902,167.992175 89.4307098,167.89262 89.4696694,167.763568 C89.5508352,167.925805 89.6287543,168.09173 89.7099201,168.261341 L89.4599295,173.600427 L89.4599295,173.722105 L81.018689,173.205895 C81.6095758,170.348304 82.7264169,168.954538 83.6354735,168.272403 Z M111.774024,195.211186 L111.5565,186.56467 C111.933109,184.971793 112.270759,183.526406 112.559709,182.287502 C112.689574,183.316234 112.79996,184.263848 112.884372,185.137718 C113.683043,193.341768 112.504516,194.942019 111.774024,195.211186 Z M135.799093,65.5761297 C135.315345,65.7863009 133.474506,64.4699656 131.727818,63.1056966 C131.727818,62.8549661 131.744051,62.6079228 131.753791,62.3682539 C132.000535,56.7231298 123.906684,53.2092153 121.429505,52.5602657 C120.828378,52.3840627 120.245138,52.1369025 119.689311,51.822823 C118.36951,51.0804022 117.086274,50.2569352 115.845299,49.3560771 L115.877766,49.2491479 C115.877766,49.2491479 112.683081,46.9520138 112.614902,44.0870488 C113.342946,41.4811794 114.261701,38.9490632 115.361551,36.5171993 C115.423237,36.373398 115.491417,36.2222222 115.556349,36.0784209 C117.066144,35.5451287 118.475365,34.6973856 119.712037,33.5784901 C120.208772,40.9529173 129.604522,47.2986119 129.604522,47.2986119 L130.607731,49.1422187 L130.844735,49.5773099 C130.33826,49.9165335 130.094763,50.1893873 130.266834,50.3479375 C130.981093,50.9968871 132.708301,54.6693519 133.42256,56.2216688 C133.617357,56.6420111 133.747223,56.9038033 133.747223,56.9038033 C133.747223,56.9038033 135.282879,61.6492472 136.162716,65.6203763 C136.045788,65.5649301 135.917131,65.5495494 135.7926,65.5761297 L135.799093,65.5761297 Z" id="Shape" fill="url(#linearGradient-1)"></path>
                    <path d="M138,46.5590606 L137.894982,46.7226285 L137.536684,47.2860289 L130.664167,53 L129.206267,50.1793629 L128.279635,48.3619421 C128.279635,48.3619421 114.580933,38.6932633 120.47122,29.3735293 C126.361508,20.0537953 135.065667,41.1867646 135.065667,41.1867646 L138,46.5590606 Z" id="Path" fill="#FFC5D3"></path>
                    <path d="M124.460722,23.1098705 C124.46175,23.1098166 124.462627,23.1106065 124.462681,23.1116347 C124.462685,23.1116974 124.462685,23.1117603 124.462682,23.111823 L124.35372,25.3514433 C124.353663,25.3526134 124.35273,25.3535504 124.35156,25.3536118 C124.350531,25.3536657 124.349654,25.3528758 124.3496,25.3518475 C124.349597,25.3517848 124.349597,25.351722 124.3496,25.3516593 L124.458562,23.112039 C124.458618,23.1108689 124.459552,23.1099318 124.460722,23.1098705 Z" id="Rectangle" fill="#3A3768" transform="translate(124.406141, 24.231741) rotate(-26.730000) translate(-124.406141, -24.231741) "></path>
                    <path d="M116.060435,25.7585465 L116.060435,25.7585465 L116.024513,26.4969022 L116.024513,26.4969022 L116.060435,25.7585465 Z" id="Rectangle" fill="#3A3768" transform="translate(116.042474, 26.127724) rotate(-26.730000) translate(-116.042474, -26.127724) "></path>
                    <path d="M116.736218,26.9689401 L116.73622,26.9689401 L116.673618,28.2556865 L116.673615,28.2556865 L116.736218,26.9689401 Z" id="Rectangle" fill="#3A3768" transform="translate(116.704918, 27.612313) rotate(-26.730000) translate(-116.704918, -27.612313) "></path>
                    <path d="M117.441345,28.5576862 L117.441346,28.5576862 L117.37822,29.8551853 L117.378219,29.8551853 L117.441345,28.5576862 Z" id="Rectangle" fill="#3A3768" transform="translate(117.409782, 29.206436) rotate(-26.730000) translate(-117.409782, -29.206436) "></path>
                    <path d="M120.584732,20.7821985 L124.535506,20.5750494 C125.770927,20.5102732 126.824945,21.4592681 126.889721,22.6946889 C126.893671,22.7700133 126.893813,22.8454892 126.890148,22.920828 L126.208814,36.9251057 C126.152947,38.0734109 125.236835,38.9929845 124.088748,39.0531816 L120.137974,39.2603307 C118.902553,39.3251069 117.848535,38.376112 117.783759,37.1406912 C117.779809,37.0653667 117.779667,36.9898909 117.783332,36.9145521 L118.464666,22.9102744 C118.520533,21.7619692 119.436645,20.8423955 120.584732,20.7821985 Z" id="Rectangle" fill="#3A3768" transform="translate(122.336740, 29.917690) rotate(-26.730000) translate(-122.336740, -29.917690) "></path>
                    <path d="M121.628568,19.4476936 C121.564786,19.4864521 121.516368,19.5550309 121.494194,19.6380219 C121.472019,19.7210129 121.477948,19.8114565 121.510646,19.8890317 L121.534231,19.9505296 C121.56705,20.0286423 121.573054,20.119615 121.550905,20.2031899 C121.528756,20.2867648 121.480293,20.3560026 121.416309,20.3954853 L118.580295,22.1463675 C118.517077,22.1864921 118.443371,22.1937665 118.375739,22.1665563 C118.308107,22.1393461 118.25222,22.0799332 118.220634,22.0016665 L118.194102,21.9401686 C118.162441,21.8619695 118.106759,21.8024094 118.039308,21.7745935 C117.971856,21.7467776 117.898163,21.752985 117.834441,21.79185 L117.283158,22.1355149 C117.161098,22.2092292 117.068297,22.3400373 117.02561,22.4985418 C116.982922,22.6570464 116.99393,22.8299512 117.056159,22.9783983 L123.081951,37.6546984 C123.210683,37.9640561 123.51851,38.0883531 123.771792,37.9332478 L128.718602,34.876439 C128.970708,34.7184733 129.072002,34.3407398 128.945601,34.029938 L122.916861,19.3464029 C122.855597,19.197079 122.74844,19.0837955 122.619027,19.0315398 C122.489613,18.979284 122.348574,18.9923492 122.22702,19.0678535 L121.628568,19.4476936 Z" id="Path" fill="#6B5915"></path>
                    <path d="M118.072415,22.2167823 L119.251206,22.1549753 C119.251673,22.1549509 119.252071,22.1553092 119.252095,22.1557757 C119.252097,22.1558041 119.252097,22.1558326 119.252095,22.1558611 C119.25207,22.1563919 119.251646,22.156817 119.251115,22.1568448 L118.072324,22.2186518 C118.071857,22.2186763 118.071459,22.2183179 118.071435,22.2178515 C118.071433,22.217823 118.071433,22.2177945 118.071435,22.2177661 C118.07146,22.2172353 118.071884,22.2168102 118.072415,22.2167823 Z" id="Rectangle" fill="#E6E8EC" transform="translate(118.661765, 22.186814) rotate(-26.730000) translate(-118.661765, -22.186814) "></path>
                    <circle id="Oval" fill="#E6E8EC" cx="119.5" cy="22.5" r="1"></circle>
                    <path d="M124.98928,77 L123,139 C123,139 129.683982,136.412354 130.718408,138.353088 C131.752833,140.293823 129.604411,107.301336 129.604411,107.301336 L124.98928,77 Z" id="Path" fill="#5F5570"></path>
                    <path d="M124.98928,77 L123,139 C123,139 129.683982,136.412354 130.718408,138.353088 C131.752833,140.293823 129.604411,107.301336 129.604411,107.301336 L124.98928,77 Z" id="Path" fill="#000000" opacity="0.15"></path>
                    <path d="M126.193371,280.895641 C122.063998,281.130449 105.759327,280.895641 105.759327,280.895641 C105.759327,280.895641 101.521955,277.275388 101.204311,277.275388 C100.886667,277.275388 100.677022,279.14334 100.677022,279.14334 L94.0064958,277.04058 L94.0064958,273.304675 C94.0064958,273.304675 93.7936743,262.668211 95.8043614,262.205603 C97.8150484,261.742996 106.712259,262.205603 106.712259,262.205603 C107.029903,262.089951 113.065141,268.398233 114.758184,269.565266 C116.451227,270.732298 116.133583,271.552374 116.133583,271.552374 C116.133583,271.552374 120.158133,275.288279 123.334574,275.523087 C125.313497,275.670281 127.540182,277.625848 127.937237,279.14334 C128.178647,280.058041 127.749827,280.808026 126.193371,280.895641 Z" id="Path" fill="#BC8487"></path>
                    <path d="M126.193026,281.890461 C122.062864,282.136923 105.755077,281.890461 105.755077,281.890461 C105.755077,281.890461 101.516895,278.090533 101.19919,278.090533 C100.881486,278.090533 100.6718,280.051193 100.6718,280.051193 L94,277.844071 L94,274 L100.246076,276.619118 L105.22451,280.051193 L127.937225,280.051193 C128.178681,281.011291 127.749779,281.798498 126.193026,281.890461 Z" id="Path" fill="#000000" opacity="0.1"></path>
                    <path d="M108,275 C108,275 113.393258,268.488012 117,270.327341" id="Path" stroke="#000000" fill="#000000" opacity="0.1"></path>
                    <path d="M74.4214645,254.898747 C74.646171,255.624043 72.6338737,256.592313 72.6338737,256.592313 L72.6338737,266.140831 C72.6338737,266.140831 73.5461151,271.874294 72.2280604,273.5461 C72.0277675,273.820633 71.7261783,273.986337 71.4030184,273.99941 C68.9446618,274.119084 63.5785355,255.986691 63.5785355,255.986691 L63.2431526,245.509794 L61.901621,244.505259 L60,231.206962 L63.4678591,231.206962 C63.4678591,231.206962 63.8334265,230.963988 64.4203466,230.637605 C66.097261,229.712853 69.60872,228.09907 71.5170486,229.636697 L78,245.430011 C78,245.430011 74.2001118,254.173451 74.4214645,254.898747 Z" id="Path" fill="#BC8487"></path>
                    <path d="M71,274.539426 C70.8198225,274.817995 70.5485218,274.986137 70.2578168,274.999402 C68.0463522,275.120835 63.2191443,256.721821 63.2191443,256.721821 L62.9174438,246.090871 L61.7106418,245.071566 L60,231.577729 L63.1195831,231.577729 C63.1195831,231.577729 63.4484366,231.331182 63.9764125,231 L64.7276467,244.825019 L65.1289084,256.721821 C65.1289084,256.721821 68.9182666,269.674727 71,274.539426 Z" id="Path" fill="#000000" opacity="0.1"></path>
                    <path d="M132.026472,204.628334 C130.983336,206.361294 124.162832,210.556882 124.162832,210.556882 C124.162832,210.556882 121.274147,210.739299 117.904015,213.657969 C116.161176,215.168381 110.104568,218.163666 104.664212,220.706557 C99.5833374,223.081625 95.0352644,225.059024 95.0352644,225.059024 L89.7971167,231.990865 L85.8075227,237.270009 C85.8075227,237.270009 83.4002857,236.175508 83.159562,238.182093 C82.9188383,240.188679 79.3079829,242.46889 79.3882241,242.833724 C79.4684654,243.198557 78.0241232,244.110642 78.0241232,244.931518 C78.0241232,245.752393 72.6479607,239.002969 72.7282019,234.89859 C72.8084431,230.79421 70,227.966749 70,227.966749 C70,227.966749 70.7221711,226.507414 71.8455483,226.781039 C72.9689256,227.054664 73.9318204,226.507414 74.2527853,226.051371 C74.5737502,225.595329 75.9378512,226.68983 76.579781,226.324997 C77.2217109,225.960163 79.7894303,218.754697 79.7894303,218.754697 L89.7939071,211.126023 L109.693733,195.963533 L110.611692,195.263052 C110.611692,195.263052 113.259653,196.642123 112.18442,185.343222 C111.975793,183.15422 111.625941,180.494582 111.09314,177.254858 C107.803249,157.280211 119.59871,155 119.59871,155 L129.949829,158.921963 L132.437307,163.299968 L132.437307,163.321858 L132.998996,190.297665 C132.998996,190.297665 133.069608,202.895374 132.026472,204.628334 Z" id="Path" fill="#433A59"></path>
                    <path d="M104.132412,217.416245 C104.132412,217.416245 104.162968,218.710553 104.208803,220.723111 C99.371771,223.096617 95.0419707,225.072716 95.0419707,225.072716 L90.0552142,232 C89.9727127,226.257646 89.9910464,218.798055 90.0552142,211.152522 L109,196 C106.656347,206.365404 104.132412,217.416245 104.132412,217.416245 Z" id="Path" fill="#000000" opacity="0.1"></path>
                    <path d="M132,163.47962 L132,163.501984 L116.378877,163.852351 C116.378877,163.852351 113.641155,176.245641 113.238549,178.854755 C113.138702,179.495852 112.533182,182.235421 111.676436,186 C111.467081,183.763617 111.116008,181.046411 110.581347,177.736564 C107.279976,157.329566 119.1166,155 119.1166,155 L129.503841,159.006853 L132,163.47962 Z" id="Path" fill="#000000" opacity="0.1"></path>
                    <path d="M90.6691176,129.359789 L88.6470588,173.524991 C88.6470588,173.524991 87.1911765,238.39263 88.6470588,242.625129 C90.1029412,246.857627 90.6691176,253.482408 90.6691176,253.482408 C90.6691176,253.482408 89.7794118,258.543004 90.6691176,260.199199 C91.5588235,261.855394 94.3897059,263.695611 94.3088235,264.615719 C94.2279412,265.535827 102.963235,270.504412 107.492647,262.591481 C107.492647,262.591481 104.742647,258.17496 105.308824,256.242733 C105.875,254.310505 105.066176,251.458169 105.066176,251.458169 C105.066176,251.458169 103.529412,246.02953 103.529412,243.258164 C103.529412,240.486797 102.963235,217.311108 102.963235,217.311108 C102.963235,217.311108 111.779412,180.506773 112.183824,177.930469 C112.588235,175.354166 115.338235,163.116725 115.338235,163.116725 L132,162.748681 C132,162.748681 131.514706,149.591132 130.544118,146.738796 C129.573529,143.88646 124.801471,123 124.801471,123 L90.6691176,129.359789 Z" id="Path" fill="#433A59"></path>
                    <polygon id="Path" fill="#7B728F" points="63.4919415 172 62.0577526 172.516824 62 174.30148 105 175 105 174.297443"></polygon>
                    <path d="M114.687234,37.6568936 C108.277255,52.5109038 112.258017,55.616913 112.89244,56 C111.534839,55.2788951 93.8893165,45.8068815 96.2100578,43.4031984 C97.7188683,41.8370487 99.0107257,35.0241095 99.7700617,30.1416283 C100.220404,27.2271626 100.483377,25 100.483377,25 L119,28.8796947 C117.205206,32.1847589 115.778574,35.0954689 114.687234,37.6568936 Z" id="Path" fill="#FFC5D3"></path>
                    <path d="M138,46.5559701 L137.629393,47.1343284 L130.507987,53 L129,50.1044776 C131.194888,48.6119403 137.776358,46 137.776358,46 L138,46.5559701 Z" id="Path" fill="#000000" opacity="0.1"></path>
                    <path d="M145.930248,59.8206885 C145.291843,62.4741394 134.518754,59.8206885 134.518754,59.8206885 L133.401545,57.7358342 C133.401545,57.7358342 133.289824,57.4704891 133.101494,57.0383557 C132.412017,55.4500758 130.742587,51.6897568 130.053109,51.0226035 C129.175302,50.1697085 139.469587,46 139.469587,46 L142.623309,54.1498849 C143.40071,54.7705409 144.117951,55.4913503 144.761967,56.2991801 C145.559973,57.3264447 146.220723,58.611473 145.930248,59.8206885 Z" id="Path" fill="#E5E8EF"></path>
                    <path d="M127,60 C127,60 133.659186,65.9894891 134.658064,65.5567883 C135.656942,65.1240876 151.805468,77.5547445 151.805468,77.5547445 C151.805468,77.5547445 153.636744,85.5255474 146.06192,86 C146.06192,86 129.996634,85.2408759 129.330715,82.5839416 C128.664796,79.9270073 127,60 127,60 Z" id="Path" fill="#5F5570"></path>
                    <path d="M108.980346,49.0109454 L102,57.2199695 L111.788531,128 L115.639756,125.446081 C115.639756,125.446081 125.588755,130.462707 126.391094,125.810927 C127.193432,121.159147 126.971987,102.825659 126.971987,102.825659 L125.668989,69.7049831 C125.668989,69.7049831 121.095659,58.1211379 121.095659,57.7562924 C121.095659,57.3914469 114.500436,51.7363414 114.500436,51.7363414 L111.387362,49 L108.980346,49.0109454 Z" id="Path" fill="#000000" opacity="0.1"></path>
                    <path d="M108.980346,49.0109454 L102,57.2199695 L111.788531,128 L115.639756,125.446081 C115.639756,125.446081 125.588755,130.462707 126.391094,125.810927 C127.193432,121.159147 126.971987,102.825659 126.971987,102.825659 L125.668989,69.7049831 C125.668989,69.7049831 121.095659,58.1211379 121.095659,57.7562924 C121.095659,57.3914469 114.500436,51.7363414 114.500436,51.7363414 L111.387362,49 L108.980346,49.0109454 Z" id="Path" fill="#E5E8EF"></path>
                    <path d="M110.009302,49.5683401 L108,54.0571638 L110.009302,56.3766948 C110.009302,56.3766948 117.209302,72.2872847 115.786047,81.7229754 L117.293023,112.778307 L122.148837,118 L126,113.133749 L124.15814,84.9182851 C124.15814,84.9182851 119.218605,61.6496885 114.027907,54.4126053 L112.52093,48 L110.009302,49.5683401 Z" id="Path" fill="#000000" opacity="0.1"></path>
                    <path d="M110.009302,47.5683401 L108,52.0571638 L110.009302,54.3766948 C110.009302,54.3766948 117.209302,70.2872847 115.786047,79.7229754 L117.293023,110.778307 L122.148837,116 L126,111.133749 L124.15814,82.9182851 C124.15814,82.9182851 119.218605,59.6496885 114.027907,52.4126053 L112.52093,46 L110.009302,47.5683401 Z" id="Path" fill="#BC8487"></path>
                    <path d="M119,29.526613 C117.32,32.5164198 115.996923,35.1494883 114.963077,37.4665886 C113.874099,37.8211628 112.744567,38.0008078 111.609231,38 C107.806154,38 105.615385,35.0951282 103.461538,32.0101912 C102.969231,31.3103046 101.350769,31.4733849 101,30.6511881 C101.421538,28.0147221 101.667692,26 101.667692,26 L119,29.526613 Z" id="Path" fill="#000000" opacity="0.1"></path>
                    <path d="M123,23.0007511 C122.999669,29.8883524 118.525926,35.7523417 112.45153,36.8272299 C106.377133,37.9021181 100.507121,33.868497 98.6108499,27.3165069 C96.7145783,20.7645167 99.3555337,13.641114 104.837859,10.5205046 C110.320184,7.39989506 117.014779,9.20938338 120.622791,14.7870288 C122.16815,17.1760062 123,20.0507025 123,23.0007511 Z" id="Path" fill="#FFC5D3"></path>
                    <path d="M107.430757,55 L97.1315837,41.1706429 C97.1315837,41.1706429 96.1801363,40.7448443 99.3941323,37 C99.3941323,37 111.197312,47.2410028 111.929698,48.9805904 C112.662083,50.7201779 107.430757,55 107.430757,55 Z" id="Path" fill="#000000" opacity="0.1"></path>
                    <path d="M106.430757,54 L96.1315837,40.1706429 C96.1315837,40.1706429 95.1801363,39.7448443 98.3941323,36 C98.3941323,36 110.197312,46.2410028 110.929698,47.9805904 C111.662083,49.7201779 106.430757,54 106.430757,54 Z" id="Path" fill="#E5E8EF"></path>
                    <path d="M131,142 C131,142 129.176292,140.676009 129.176292,139.112965 C129.176292,137.549921 128.264438,115.483411 128.264438,115.483411 C128.264438,115.483411 126.927052,102.313383 125.528875,91.8465023 L125.528875,91.8465023 C124.708207,85.6789129 123.866261,80.4454725 123.270517,79.4083466 L123.246201,79.3642135 C121.650456,76.8817313 121.954407,64.7451512 112,47 C112.133739,47.1103325 115.56535,50.0231118 118.079027,51.4868569 C118.590668,51.7979709 119.127444,52.0444564 119.680851,52.2224072 C121.960486,52.8660137 129.407295,56.3598777 129.179331,61.9684488 C128.951368,67.5770199 129.711246,80.4491502 129.711246,80.4491502 L129.711246,106.829662 L131,142 Z" id="Path" fill="#5F5570"></path>
                    <path d="M144.935188,59.7456321 C144.341987,62.5679599 134.331734,59.7456321 134.331734,59.7456321 L133.293634,57.5280889 C133.293634,57.5280889 133.189824,57.2458561 133.01483,56.7862199 C133.008745,56.7707839 133.003778,56.75458 133,56.7378371 C138.816328,57.290207 142.058167,56.7136457 143.849631,56 C144.591131,57.092644 145.205094,58.459457 144.935188,59.7456321 Z" id="Path" fill="#000000" opacity="0.1"></path>
                    <path d="M133,58.0640679 C133,58.0640679 136.272727,68.510485 135.805195,71.1220893 C135.337662,73.7336936 143.363636,84 143.363636,84 L151,77.8762383 C151,77.8762383 148.116883,71.2121446 148.506494,69.2309276 C148.896104,67.2497105 146.480519,63.0171105 146.480519,63.0171105 L146.636364,56 C146.636364,56 145.233766,59.0438698 133,58.0640679 Z" id="Path" fill="#5F5570"></path>
                    <path d="M120.990051,15.8958071 L114.689151,16.1641081 C114.073766,16.1595747 113.460524,16.2460236 112.865206,16.42123 C110.613463,17.2000483 109.575473,19.8905118 109.492566,22.3089478 C109.409659,24.7273838 108.166061,27.4364793 105.755137,27.6488843 C105.515174,27.694677 105.268789,27.6331535 105.068671,27.4774697 C104.915738,27.294682 104.81422,27.0652389 104.77684,26.8178963 C104.431008,25.4086868 103.896509,24.0667525 103.191666,22.8380971 C102.196787,23.0393229 101.460576,24.101348 101.201908,25.2118163 C100.943239,26.3222846 101.012881,27.4923753 101.016197,28.6438341 C101.019199,30.1062102 100.893677,31.5653456 100.641459,33 C97.8435421,28.9186822 97.2184004,23.4605434 99.0054762,18.7161633 C100.792552,13.9717832 104.714886,10.676441 109.270144,10.0923206 C113.825401,9.50820025 118.307613,11.7258281 121,15.8958071 L120.990051,15.8958071 Z" id="Path" fill="#000000" opacity="0.1"></path>
                    <path d="M112.594497,15.0631365 C113.190507,14.8928946 113.804462,14.8088953 114.420562,14.8133003 L122.080075,14.5019102 C123.202274,14.4548396 124.453959,14.3462151 125.207626,13.4373905 C125.478159,13.0903597 125.677407,12.6841687 125.791967,12.2461423 C126.190957,10.8302901 126.010661,9.29556409 125.297269,8.03513422 C124.410797,6.49628776 122.856982,5.60194641 121.37621,4.77640054 C119.998039,3.97343172 118.582906,3.24831053 117.136419,2.60391142 C111.763508,0.378686263 105.814684,0.471921222 100.502627,2.86461012 C99.9777573,3.08431124 99.4802721,3.37504542 99.0218545,3.72998495 C98.3815867,4.32829011 97.8363825,5.03787399 97.4082772,5.83005776 L94.8883076,9.97227035 C94.5406189,10.4780597 94.2724599,11.0433731 94.0947993,11.645087 C93.6200224,13.6111896 95.0908348,15.5772923 94.9381093,17.601328 C94.8517863,18.6079146 94.3637289,19.5312225 94.2740857,20.5378091 C94.1545615,21.8376818 94.6990608,23.0723797 95.2335998,24.2563863 L99.6626373,34 C100.377837,31.7279353 100.740283,29.3416186 100.735035,26.9394104 C100.735035,25.8205785 100.648712,24.6836425 100.920962,23.6046396 C101.193212,22.5256366 101.916998,21.4937043 102.913033,21.2981803 C103.62045,22.4914508 104.156736,23.7954735 104.503369,25.1652109 C104.540025,25.4058171 104.641767,25.6289908 104.79554,25.8060952 C104.995746,25.9577288 105.242553,26.017542 105.482804,25.9726527 C107.909811,25.7662662 109.134934,23.1592793 109.224577,20.7840245 C109.314221,18.4087698 110.340137,15.8198869 112.594497,15.0631365 Z" id="Path" fill="#8F7080"></path>
                    <polygon id="Path" fill="#7B728F" points="61 172.828335 64.0476127 172 110 174.379524 104.942399 175"></polygon>
                    <polygon id="Path" fill="#000000" opacity="0.1" points="61 172.828335 64.0476127 172 110 174.379524 104.942399 175"></polygon>
                    <polygon id="Path" fill="#7B728F" points="112 224 106.078088 223.359259 104 223.137037 104 184.862963 104.548207 175.977778 104.669323 174 110.779283 174"></polygon>
                    <polygon id="Path" fill="#000000" opacity="0.1" points="110 224 104.818182 223.397813 103 223.188516 103 187.211484 103.479021 178.861641 103.583916 177 108.93007 177"></polygon>
                    <path d="M78,172.375768 C78,172.375768 81.0667219,164.359526 82.3530874,164.110623 C83.639453,163.861721 86,164.110623 86,164.110623 L85.7911314,166.433714 C85.7911314,166.433714 82.6415251,166.730026 81.6469126,173 L78,172.375768 Z" id="Path" fill="#7B728F"></path>
                    <path d="M78,172.375768 C78,172.375768 81.0667219,164.359526 82.3530874,164.110623 C83.639453,163.861721 86,164.110623 86,164.110623 L85.7911314,166.433714 C85.7911314,166.433714 82.6415251,166.730026 81.6469126,173 L78,172.375768 Z" id="Path" fill="#000000" opacity="0.1"></path>
                    <path d="M88.7057626,164 C88.7057626,164 96.9843487,168.603647 95.9025069,174 L91.4087026,173.720878 C91.4087026,173.720878 89.2450191,165.67473 87.5407022,165.254187 C85.8363853,164.833643 88.7057626,164 88.7057626,164 Z" id="Path" fill="#7B728F"></path>
                    <path d="M119,92.2048964 L119,92.4730171 L118.840609,123.057144 C118.840609,123.057144 114.776144,148.76735 113.660408,149.777394 C112.544673,150.787437 88.078186,148.032773 88.078186,148.032773 L77.0005258,61.9954042 C76.9208305,47.3038578 85.9264103,47.7629687 85.9264103,47.7629687 C87.1218413,45.5592367 92.8599098,43.8146156 92.8599098,43.8146156 L96.0477257,40.2335512 L96.1497358,40.0682713 C96.3615473,39.7044132 96.6347475,39.3933891 96.9530654,39.1537225 L96.9530654,39.1537225 C97.6097555,38.716649 98.0273594,39.2932922 98.2664455,39.8625896 C98.3740649,40.1298801 98.4573918,40.4092828 98.5150952,40.6963349 C111.428937,51.6084809 119,92.2048964 119,92.2048964 Z" id="Path" fill="#5F5570"></path>
                    <path d="M118,93.7284563 L118,94 C114.01439,85.4445133 98.6585366,53.0303782 94.4573171,51.415995 L96.0743902,50.1140732 C96.0743902,50.1140732 97.152439,49.3701178 95.1707317,48.6261624 C95.1707317,48.6261624 92.0792683,49.0911345 92,44.7203968 L95.2721951,40.9262244 L96.0712195,40 L96.0712195,40 L97.377561,40.7179169 C97.4846036,40.9886198 97.5674839,41.2715895 97.624878,41.5623063 C110.469512,52.6137632 118,93.7284563 118,93.7284563 Z" id="Path" fill="#000000" opacity="0.1"></path>
                    <path d="M119,92.7284563 L119,93 C115.01439,84.4445133 99.6585366,52.0303782 95.4573171,50.415995 L97.0743902,49.1140732 C97.0743902,49.1140732 98.152439,48.3701178 96.1707317,47.6261624 C96.1707317,47.6261624 93.0792683,48.0911345 93,43.7203968 L96.2721951,39.9262244 L97.0712195,39 L97.0712195,39 L98.377561,39.7179169 C98.4846036,39.9886198 98.5674839,40.2715895 98.624878,40.5623063 C111.469512,51.6137632 119,92.7284563 119,92.7284563 Z" id="Path" fill="#433A59"></path>
                    <path d="M124,82 L123.976268,81.9550613 C122.418824,79.4272583 122.71548,67.0691103 113,49 C113.130529,49.1123468 116.479773,52.0783023 118.933118,53.5687699 L118.247843,56.4223786 L119.731122,57.4222651 L124,82 Z" id="Path" fill="#000000" opacity="0.1"></path>
                    <path d="M123,80 L122.976268,79.9550613 C121.418824,77.4272583 121.71548,65.0691103 112,47 C112.130529,47.1123468 115.479773,50.0783023 117.933118,51.5687699 L117.247843,54.4223786 L118.731122,55.4222651 L123,80 Z" id="Path" fill="#433A59"></path>
                    <path d="M111.515075,45 L111,48.3528761 C111,48.3528761 111.376884,51.7096239 113.635678,52 L114,50.4009956 C114,50.4009956 111.562814,47.9928097 111.515075,45 Z" id="Path" fill="#000000" opacity="0.1"></path>
                    <path d="M111.515075,45 L111,48.3528761 C111,48.3528761 111.376884,51.7096239 113.635678,52 L114,50.4009956 C114,50.4009956 111.562814,47.9928097 111.515075,45 Z" id="Path" fill="#E5E8EF"></path>
                    <polygon id="Path" fill="#000000" opacity="0.1" points="107 176 105.577419 223 104 222.786153 104 185.954576 104.416129 177.404262"></polygon>
                    <polygon id="Path" fill="#7B728F" points="62.2961398 193.679416 61 219.840868 105.068752 224 107 175"></polygon>
                    <polygon id="Path" fill="#000000" opacity="0.1" points="61 197.30137 61.8619329 174 107 176.367123 104.851648 201"></polygon>
                    <polygon id="Path" fill="#7B728F" points="61 196.30137 61.8619329 173 107 175.367123 104.851648 200"></polygon>
                    <rect id="Rectangle" fill="#C3BBC8" x="79" y="197" width="6" height="7"></rect>
                    <path d="M79.4973515,150 L78.666009,152.330345 C78.666009,152.330345 76.9201896,165.104086 79.0816802,166.657649 C81.2431709,168.211212 87.6445087,168.297521 87.9770457,167.520739 C88.3095827,166.743958 90.6373419,157.940434 90.6373419,157.940434 C90.6373419,157.940434 92.7156983,164.413613 93.7964436,163.895759 C94.877189,163.377904 91.3024159,151.073685 91.3024159,151.073685 L79.4973515,150 Z" id="Path" fill="#FFC5D3"></path>
                    <path d="M79,139.784764 L79,152.488627 C79,152.488627 87.3684211,154.265391 91,151.195143 C91,151.195143 87.6052632,138.896382 88.8684211,135.787045 C90.1315789,132.677707 79,139.784764 79,139.784764 Z" id="Path" fill="#000000" opacity="0.1"></path>
                    <path d="M79,137.784764 L79,150.488627 C79,150.488627 87.3684211,152.265391 91,149.195143 C91,149.195143 87.6052632,136.896382 88.8684211,133.787045 C90.1315789,130.677707 79,137.784764 79,137.784764 Z" id="Path" fill="#E5E8EF"></path>
                    <path d="M79.037912,62.4576319 L76.8723943,63.8235437 C76.8723943,63.8235437 76.4856947,69.2871909 76.2536749,70.0156772 C76.0216552,70.7441636 76.2536749,78.1200874 76.2536749,78.1200874 L76.1484926,93.0540566 C76.1484926,93.0540566 75.8143842,100.976345 76.1484926,103.79923 C76.4826011,106.622114 76.8569263,117.367287 76.8569263,117.367287 C76.8569263,117.367287 78.9481977,127.839278 78.1747985,131.57277 C77.4013993,135.306262 78.2521384,143.683855 79.566917,142.955368 C80.8816957,142.226882 93.0240629,139.403998 93.6427822,138.857633 C94.2615016,138.311268 93.9521419,133.211864 93.6427822,132.574439 C93.3334225,131.937013 91.4772645,123.286238 91.6319443,121.282901 C91.7866242,119.279564 91.0905649,101.704831 91.0905649,101.704831 C91.0905649,101.704831 92.2506637,82.9463091 92.7147032,78.5753913 C93.1787427,74.2044735 91.7866242,61.3649024 90.5491855,61.1827808 C89.3117468,61.0006592 85.689145,51.0750334 79.037912,62.4576319 Z" id="Path" fill="#000000" opacity="0.1"></path>
                    <path d="M79.037912,62.4576319 L76.8723943,63.8235437 C76.8723943,63.8235437 76.4856947,69.2871909 76.2536749,70.0156772 C76.0216552,70.7441636 76.2536749,78.1200874 76.2536749,78.1200874 L76.1484926,93.0540566 C76.1484926,93.0540566 75.8143842,100.976345 76.1484926,103.79923 C76.4826011,106.622114 76.8569263,117.367287 76.8569263,117.367287 C76.8569263,117.367287 78.9481977,127.839278 78.1747985,131.57277 C77.4013993,135.306262 78.2521384,143.683855 79.566917,142.955368 C80.8816957,142.226882 93.0240629,139.403998 93.6427822,138.857633 C94.2615016,138.311268 93.9521419,133.211864 93.6427822,132.574439 C93.3334225,131.937013 91.4772645,123.286238 91.6319443,121.282901 C91.7866242,119.279564 91.0905649,101.704831 91.0905649,101.704831 C91.0905649,101.704831 92.2506637,82.9463091 92.7147032,78.5753913 C93.1787427,74.2044735 91.7866242,61.3649024 90.5491855,61.1827808 C89.3117468,61.0006592 85.689145,51.0750334 79.037912,62.4576319 Z" id="Path" fill="#5F5570"></path>
                    <g id="Group" opacity="0.1" transform="translate(94.000000, 9.000000)" fill="#000000">
                        <path d="M8.14,11.7325 C7.14,11.9275 6.4,12.9566667 6.14,14.0327778 C5.88,15.1088889 5.95,16.2427778 5.95333333,17.3586111 C5.95973634,19.754183 5.59697353,22.1341099 4.88,24.4002778 L0.43,14.6827778 C0.343333333,14.4913889 0.253333333,14.2927778 0.166666667,14.0941667 C0.372569432,14.7629032 0.62783859,15.4125948 0.93,16.0369444 L5.38,25.7544444 C6.09697353,23.4882765 6.45973634,21.1083497 6.45333333,18.7127778 C6.45333333,17.5969444 6.37,16.4630556 6.64,15.3869444 C6.91,14.3108333 7.64,13.2816667 8.64,13.0866667 C8.96280434,13.6344036 9.25123318,14.2050436 9.50333333,14.7947222 C9.16470221,13.7180849 8.706923,12.6898539 8.14,11.7325 L8.14,11.7325 Z" id="Path"></path>
                        <path d="M31.1966667,0.0144444444 C31.3922608,0.902850576 31.364637,1.83179619 31.1166667,2.70472222 C31.000468,3.14179507 30.7992994,3.54687887 30.5266667,3.89277778 C29.77,4.79916667 28.5266667,4.9075 27.3866667,4.95444444 L19.7,5.265 C19.0803484,5.26058278 18.4628451,5.34435478 17.8633333,5.51416667 C15.6033333,6.26888889 14.5566667,8.87611111 14.4733333,11.2197222 C14.39,13.5633333 13.14,16.1886111 10.7166667,16.3944444 C10.475468,16.4388204 10.2278155,16.3792003 10.0266667,16.2283333 L10.0266667,16.2283333 C10.1033333,16.4630556 10.1766667,16.7013889 10.24,16.9505556 C10.2742632,17.1906552 10.3754501,17.4136735 10.53,17.5897222 C10.7311488,17.7405892 10.9788014,17.8002093 11.22,17.7558333 C13.66,17.55 14.8866667,14.95 14.9766667,12.5811111 C15.0666667,10.2122222 16.1066667,7.63027778 18.3666667,6.87555556 C18.9661785,6.70574366 19.5836817,6.62197167 20.2033333,6.62638889 L27.89,6.31583333 C29.0166667,6.26888889 30.2733333,6.16055556 31.03,5.25416667 C31.3026327,4.90826775 31.5038013,4.50318396 31.62,4.06611111 C32.0019309,2.71022428 31.8486867,1.24354481 31.1966667,0.0144444444 L31.1966667,0.0144444444 Z" id="Path"></path>
                    </g>
                    <path d="M113,159.553139 C113,159.553139 115.865652,157.912516 116.97088,158.003662 C118.076109,158.094808 128,172 128,172 L113,159.553139 Z" id="Path" fill="#000000" opacity="0.1"></path>
                    <path d="M84,64 C84,64 78.8664606,66.7524875 79.0026631,68.653984 C79.1388657,70.5554806 84,64 84,64 Z" id="Path" fill="#000000" opacity="0.1"></path>
                    <path d="M82,72 C82,72 75.8342195,79.7354706 77.1965563,79.994048 C78.5588931,80.2526254 82,72 82,72 Z" id="Path" fill="#000000" opacity="0.1"></path>
                    <path d="M98.9830308,85 C98.9830308,85 99.4083785,101.869159 96,104 L98.9830308,85 Z" id="Path" fill="#000000" opacity="0.1"></path>
                    <path d="M79,130 C79,130 82.987187,127.580661 83.9023349,128.063802 C84.8174827,128.546943 79,130 79,130 Z" id="Path" fill="#000000" opacity="0.1"></path>
                    <path d="M81,133.943827 C81,133.943827 82.937072,134.279191 83.8558724,133.311063 C84.7746728,132.342935 81,133.943827 81,133.943827 Z" id="Path" fill="#000000" opacity="0.1"></path>
                    <path d="M137,69 C137,69 140.17208,79 142,79" id="Path" fill="#000000" opacity="0.1"></path>
                    <path d="M94,254 C94,254 100.038593,251.75 100.929303,254 C101.820013,256.25 94,254 94,254 Z" id="Path" fill="#000000" opacity="0.1"></path>
                    <path d="M77.6050068,230 C77.6050068,230 75.9361641,232.234233 78.1418373,232.914364 C80.3475104,233.594496 77.6050068,230 77.6050068,230 Z" id="Path" fill="#000000" opacity="0.1"></path>
                    <path d="M114,195 C114,195 118.527061,199.854555 120.665226,199.997089 C122.803392,200.139624 114,195 114,195 Z" id="Path" fill="#000000" opacity="0.1"></path>
                    <path d="M280.485451,21.0418703 C280.485451,21.0418703 253.029924,19.1211341 256.264974,41.2979318 C256.264974,41.2979318 255.612746,45.2183386 258.704305,47 C258.704305,47 258.753222,45.3536547 261.521929,45.9137128 C262.506547,46.1020543 263.506849,46.1575571 264.50261,46.0790991 C265.846881,45.9737546 267.125164,45.3683244 268.145302,44.3538194 L268.145302,44.3538194 C268.145302,44.3538194 275.864417,40.681492 278.864665,26.138775 C278.864665,26.138775 281.0855,22.9663653 280.997449,22.1507102 L276.363371,24.4322892 C276.363371,24.4322892 277.948285,28.285038 276.689485,31.4875179 C276.689485,31.4875179 276.539473,24.5713641 275.649182,24.7217152 C275.466558,24.7555442 273.2392,26.0560819 273.2392,26.0560819 C273.2392,26.0560819 275.965512,32.7692617 273.907734,37.6443984 C273.907734,37.6443984 274.690407,29.375084 272.391304,26.5409644 L269.130166,28.7360915 C269.130166,28.7360915 272.316298,35.6672805 270.157424,41.3242433 C270.157424,41.3242433 270.711818,32.6489807 268.445327,29.2698382 L265.490735,31.9272951 C265.490735,31.9272951 268.481199,38.7607558 266.658223,43.4517124 C266.658223,43.4517124 266.420159,33.3518725 264.848291,32.5888403 C264.848291,32.5888403 262.265469,35.2199858 261.870871,36.2949966 C261.870871,36.2949966 263.918866,41.2565853 262.647022,43.8726956 C262.647022,43.8726956 261.86761,37.1444807 261.228427,37.1068929 C261.228427,37.1068929 258.652127,41.5648052 258.384714,44.6244515 C258.384714,44.6244515 258.495592,40.0763286 260.605549,36.6821509 C260.605549,36.6821509 258.114039,37.174551 256.659571,39.0389055 C256.659571,39.0389055 257.060691,35.8852897 261.225166,35.6108988 C261.225166,35.6108988 263.351428,32.2279974 263.922127,32.0212646 C263.922127,32.0212646 259.764175,31.622834 257.243315,32.9083365 C257.243315,32.9083365 259.464151,29.9351421 264.685234,31.2883026 L267.620258,28.5443938 C267.620258,28.5443938 262.144807,27.6798745 259.826137,28.6346045 C259.826137,28.6346045 262.49701,26.003459 268.406193,27.9204364 L271.582542,25.7290681 C271.582542,25.7290681 266.915853,24.5713641 264.137362,24.9773122 C264.137362,24.9773122 267.072387,23.1543043 272.511966,25.1314222 L274.794764,23.9549243 C274.794764,23.9549243 271.37709,23.1806157 270.375921,23.0603348 C269.374751,22.9400539 269.319312,22.6167988 269.319312,22.6167988 C271.485623,22.2007312 273.709613,22.4856941 275.743755,23.4399715 C275.743755,23.4399715 280.57024,21.3764017 280.485451,21.0418703 Z" id="Path" fill="#48889B"></path>
                    <path d="M225.774002,18.0173149 C225.774002,18.0173149 213.704371,17.2117304 215.114612,26.5902821 C215.114612,26.5902821 214.831929,28.247183 216.188174,29 C216.188174,29 216.210408,28.2964327 217.426899,28.5391634 C217.861003,28.6217554 218.302583,28.6453822 218.741854,28.6095202 C219.328449,28.5609008 219.885309,28.3043315 220.329963,27.8778102 L220.329963,27.8778102 C220.329963,27.8778102 223.725341,26.3229265 225.046648,20.1737486 C225.046648,20.1737486 226.024923,18.8334529 225.999513,18.488705 L223.954029,19.4525921 C223.954029,19.4525921 224.649621,21.0813504 224.103311,22.4357174 C224.103311,22.4357174 224.03661,19.5123954 223.642759,19.5792342 C223.563354,19.5792342 222.585078,20.1456059 222.585078,20.1456059 C222.585078,20.1456059 223.782513,22.9844998 222.877291,25.0459519 C222.877291,25.0459519 223.223498,21.5492226 222.210285,20.3496404 L220.77781,21.2783492 C220.77781,21.2783492 222.178522,24.2087069 221.228833,26.6008356 C221.228833,26.6008356 221.473402,22.9317323 220.476069,21.5034907 L219.176996,22.6291984 C219.176996,22.6291984 220.49195,25.517342 219.688367,27.5014017 C219.688367,27.5014017 219.583552,23.2307484 218.894312,22.9071074 C218.894312,22.9071074 217.757226,24.0187437 217.582534,24.4760624 C217.582534,24.4760624 218.48458,26.5867643 217.925566,27.6808114 C217.925566,27.6808114 217.582534,24.8348818 217.290322,24.8208104 C217.290322,24.8208104 216.156412,26.7063707 216.038892,27.9868631 C216.093878,26.7925845 216.431234,25.6352724 217.017167,24.6308472 C216.362583,24.7673369 215.758519,25.1134731 215.279776,25.6263949 C215.279776,25.6263949 215.457644,24.293135 217.296674,24.1770464 C217.296674,24.1770464 218.233659,22.745287 218.48458,22.6608589 C218.48458,22.6608589 216.655078,22.4884849 215.543402,23.0337495 C215.543402,23.0337495 216.521677,21.777882 218.818083,22.3301823 L220.088571,21.1692963 C220.088571,21.1692963 217.677821,20.8175126 216.658254,21.2079925 C216.658254,21.2079925 217.833455,20.0963562 220.431602,20.9054585 L221.832315,19.9802676 C221.832315,19.9802676 219.777301,19.4912883 218.554457,19.6671802 C218.554457,19.6671802 219.844002,18.896774 222.242047,19.7305012 L223.239379,19.2344863 C223.239379,19.2344863 221.737028,18.9073275 221.295534,18.85456 C220.854039,18.8017924 220.831806,18.6681146 220.831806,18.6681146 C221.78535,18.4946674 222.763625,18.6164081 223.65864,19.0198983 C223.65864,19.0198983 225.812117,18.165064 225.774002,18.0173149 Z" id="Path" fill="#48889B"></path>
                    <ellipse id="Oval" fill="#48889B" opacity="0.1" cx="274" cy="265.5" rx="9" ry="1.5"></ellipse>
                    <ellipse id="Oval" fill="#48889B" opacity="0.1" cx="9" cy="241.5" rx="9" ry="1.5"></ellipse>
                    <ellipse id="Oval" fill="#48889B" opacity="0.1" cx="268" cy="233.5" rx="9" ry="1.5"></ellipse>
                    <ellipse id="Oval" fill="#48889B" opacity="0.1" cx="42" cy="249.5" rx="9" ry="1.5"></ellipse>
                    <ellipse id="Oval" fill="#48889B" opacity="0.1" cx="229" cy="250.5" rx="9" ry="1.5"></ellipse>
                    <ellipse id="Oval" fill="#48889B" cx="255" cy="283.5" rx="13" ry="2.5"></ellipse>
                    <path d="M261.653199,279.727316 C262.276685,279.184714 262.731133,278.45299 262.956455,277.628895 C263.126592,276.793884 262.793122,275.813653 262.044516,275.490539 C261.207438,275.149274 260.312513,275.766456 259.635364,276.3909 C258.958216,277.015343 258.178985,277.730549 257.290865,277.599851 C258.220617,276.701063 258.640386,275.34783 258.396761,274.034715 C258.356891,273.76729 258.249886,273.516377 258.08711,273.308617 C257.624335,272.778567 256.780452,273.007287 256.225802,273.424793 C254.456369,274.753551 253.962969,277.316674 253.952761,279.625662 C253.775818,278.790651 253.925539,277.922965 253.918734,277.084322 C253.911928,276.24568 253.697554,275.26908 253.020406,274.82616 C252.602613,274.586652 252.133418,274.46776 251.659303,274.481264 C250.863058,274.45222 249.978342,274.535722 249.437304,275.156535 C248.756752,275.926198 248.937098,277.222281 249.522372,278.060923 C250.107647,278.899565 251.002571,279.440508 251.826038,280.028646 C252.485566,280.446597 253.047537,281.018868 253.46957,281.7023 C253.521174,281.796081 253.562288,281.895997 253.592069,282 L258.58051,282 C259.695887,281.393341 260.729441,280.628883 261.653199,279.727316 Z" id="Path" fill="#6B5915"></path>
                    <path d="M43.9559221,208 C43.9559221,208 45.7582547,210.726988 43.1268492,214.836461 C40.4954437,218.945934 38.3260907,222.432529 39.1944873,225 C39.1944873,225 43.1661728,217.35076 46.4038174,217.244415 C49.641462,217.13807 47.5114327,212.610813 43.9559221,208 Z" id="Path" fill="#48889B"></path>
                    <path d="M43.9051003,208 C44.0645594,208.262392 44.1896176,208.550105 44.2762971,208.853985 C47.4646123,213.142889 49.1648261,217.147131 46.0991384,217.249609 C43.2455632,217.340701 39.8219357,223.185756 39,224.662201 C39.0270338,224.776588 39.0591127,224.889332 39.0961135,225 C39.0961135,225 43.1129929,217.355883 46.3874788,217.249609 C49.6619647,217.143336 47.5010691,212.607725 43.9051003,208 Z" id="Path" fill="#48889B" opacity="0.1"></path>
                    <path d="M46,211.790239 C46,213.010915 45.7777778,214 45.5,214 C45.2222222,214 45,213.035039 45,211.790239 C45,210.54544 45.2777778,211.143716 45.5555556,211.143716 C45.8333333,211.143716 46,210.569564 46,211.790239 Z" id="Path" fill="#48889B"></path>
                    <path d="M48.5260297,213.006268 C47.7437607,213.710531 47.0601562,214.135416 47.0037765,213.960806 C46.9473967,213.786195 47.5288129,213.064472 48.3110819,212.36021 C49.0933509,211.655947 48.786786,212.168138 48.8431657,212.36021 C48.8995455,212.552281 49.3082987,212.307826 48.5260297,213.006268 Z" id="Path" fill="#48889B"></path>
                    <path d="M33.044879,208 C33.044879,208 31.2428378,210.726988 33.8738179,214.836461 C36.5047981,218.945934 38.6738004,222.432529 37.8055442,225 C37.8055442,225 33.8377771,217.35076 30.5973794,217.244415 C27.3569817,217.13807 29.4899431,212.610813 33.044879,208 Z" id="Path" fill="#48889B"></path>
                    <path d="M33.0970107,208 C32.9372232,208.262686 32.8111557,208.550278 32.7226609,208.853985 C29.5357178,213.142889 27.8395485,217.147131 30.900604,217.249609 C33.756264,217.340701 37.178418,223.185756 38,224.662201 C37.9733602,224.777172 37.9401605,224.890014 37.9006151,225 C37.9006151,225 33.8887772,217.355883 30.6123878,217.249609 C27.3359983,217.143336 29.5025895,212.607725 33.0970107,208 Z" id="Path" fill="#48889B" opacity="0.1"></path>
                    <path d="M29,211.790239 C29,213.010915 29.2283465,214 29.503937,214 C29.7795276,214 30,213.035039 30,211.790239 C30,210.54544 29.7244094,211.143716 29.4488189,211.143716 C29.1732283,211.143716 29,210.569564 29,211.790239 Z" id="Path" fill="#48889B"></path>
                    <path d="M28.4771183,213.006268 C29.2575586,213.710531 29.9360495,214.135416 29.995813,213.960806 C30.0555764,213.786195 29.4684884,213.064472 28.6880482,212.36021 C27.9076079,211.655947 28.2169716,212.168138 28.1572081,212.36021 C28.0974447,212.552281 27.6931626,212.307826 28.4771183,213.006268 Z" id="Path" fill="#48889B"></path>
                    <path d="M31,225.145217 C31,225.145217 35.8366114,224.967086 37.2976711,223.716383 C38.7587308,222.46568 44.7383695,220.976207 45.0973367,222.981122 C45.456304,224.986036 52.367998,232.945055 46.9079172,232.998115 C41.4478363,233.051176 34.2181099,231.974813 32.7633479,230.90603 C31.3085859,229.837248 31,225.145217 31,225.145217 Z" id="Path" fill="#A8A8A8"></path>
                    <path d="M47.0053704,231.295552 C41.54427,231.349593 34.3131936,230.253331 32.8581599,229.164788 C31.7527122,228.338731 31.3086435,225.370329 31.1606206,224 L31,224 C31,224 31.3149424,228.78264 32.7605278,229.867322 C34.2061132,230.952005 41.4466379,232.052128 46.9077383,231.998087 C48.4824501,231.998087 49.0273004,231.295552 48.9989556,230.276491 C48.7784959,230.897964 48.176956,231.283972 47.0053704,231.295552 Z" id="Path" fill="#000000" opacity="0.2"></path>
                </g>
            </g>
        </g>
    </g>
</svg>