<?xml version="1.0" encoding="UTF-8"?>
<svg width="308px" height="214px" viewBox="0 0 308 214" version="1.1" xmlns="http://www.w3.org/2000/svg" xmlns:xlink="http://www.w3.org/1999/xlink">
    <title>undraw_career_progress_ivdb copy</title>
    <g id="Final" stroke="none" stroke-width="1" fill="none" fill-rule="evenodd">
        <g id="Offer" transform="translate(-212.000000, -114.000000)" fill-rule="nonzero">
            <g id="Group" transform="translate(0.000000, 70.000000)">
                <g id="undraw_career_progress_ivdb-copy" transform="translate(212.000000, 44.000000)">
                    <rect id="Rectangle" fill="#48889B" opacity="0.1" x="44" y="86" width="37" height="11" rx="5.5"></rect>
                    <rect id="Rectangle" fill="#48889B" opacity="0.1" x="82" y="97" width="37" height="11" rx="5.5"></rect>
                    <rect id="Rectangle" fill="#48889B" opacity="0.1" x="121" y="108" width="37" height="11" rx="5.5"></rect>
                    <rect id="Rectangle" fill="#48889B" opacity="0.1" x="44" y="69" width="37" height="11" rx="5.5"></rect>
                    <rect id="Rectangle" fill="#48889B" opacity="0.1" x="82" y="80" width="37" height="11" rx="5.5"></rect>
                    <rect id="Rectangle" fill="#48889B" opacity="0.1" x="121" y="91" width="37" height="11" rx="5.5"></rect>
                    <rect id="Rectangle" fill="#48889B" opacity="0.1" x="163" y="86" width="37" height="11" rx="5.5"></rect>
                    <rect id="Rectangle" fill="#48889B" opacity="0.1" x="202" y="97" width="37" height="11" rx="5.5"></rect>
                    <rect id="Rectangle" fill="#48889B" opacity="0.1" x="240" y="108" width="37" height="11" rx="5.5"></rect>
                    <rect id="Rectangle" fill="#48889B" opacity="0.1" x="163" y="69" width="37" height="11" rx="5.5"></rect>
                    <rect id="Rectangle" fill="#48889B" opacity="0.1" x="202" y="80" width="37" height="11" rx="5.5"></rect>
                    <rect id="Rectangle" fill="#48889B" opacity="0.1" x="240" y="91" width="37" height="11" rx="5.5"></rect>
                    <rect id="Rectangle" fill="#48889B" opacity="0.1" x="44" y="47" width="37" height="11" rx="5.5"></rect>
                    <rect id="Rectangle" fill="#48889B" opacity="0.1" x="82" y="58" width="37" height="11" rx="5.5"></rect>
                    <rect id="Rectangle" fill="#48889B" opacity="0.1" x="121" y="69" width="37" height="11" rx="5.5"></rect>
                    <rect id="Rectangle" fill="#48889B" opacity="0.1" x="44" y="30" width="37" height="11" rx="5.5"></rect>
                    <rect id="Rectangle" fill="#48889B" opacity="0.1" x="82" y="41" width="37" height="11" rx="5.5"></rect>
                    <rect id="Rectangle" fill="#48889B" opacity="0.1" x="121" y="52" width="37" height="11" rx="5.5"></rect>
                    <rect id="Rectangle" fill="#48889B" opacity="0.1" x="163" y="47" width="37" height="11" rx="5.5"></rect>
                    <rect id="Rectangle" fill="#48889B" opacity="0.1" x="202" y="58" width="37" height="11" rx="5.5"></rect>
                    <rect id="Rectangle" fill="#48889B" opacity="0.1" x="240" y="69" width="37" height="11" rx="5.5"></rect>
                    <rect id="Rectangle" fill="#48889B" opacity="0.1" x="163" y="30" width="37" height="11" rx="5.5"></rect>
                    <rect id="Rectangle" fill="#48889B" opacity="0.1" x="202" y="41" width="37" height="11" rx="5.5"></rect>
                    <rect id="Rectangle" fill="#48889B" opacity="0.1" x="240" y="52" width="37" height="11" rx="5.5"></rect>
                    <ellipse id="Oval" fill="#48889B" opacity="0.1" cx="154" cy="186" rx="154" ry="28"></ellipse>
                    <polygon id="Path" fill="#3F3D56" points="67.0480769 90.1415929 54 170 113 163.769912 110.447115 156.973451 64.3533654 160.79646 75.1322115 90"></polygon>
                    <polygon id="Path" fill="#3F3D56" points="52 0.281105991 131.113573 0 154 172.317972 74.6038781 183"></polygon>
                    <polygon id="Path" fill="#FFFFFF" points="61 7 124.72459 7 147 167.963455 81.3016393 177"></polygon>
                    <path d="M120.86101,159.87988 C121.26418,160.657106 121.565138,161.497196 122.090395,162.197271 C123.623577,164.260349 126.533783,164.58324 128.717148,165.929099 C128.826394,165.984923 128.91642,166.07254 128.975518,166.180554 C129.074891,166.417723 128.853431,166.666321 128.640489,166.814908 C126.98522,167.983604 124.813212,168.009321 122.788844,167.995034 C122.108523,168.019391 121.427958,167.954068 120.764476,167.800728 C119.694088,167.514983 118.777018,166.763474 117.720826,166.457727 C117.173161,166.320059 116.612661,166.240569 116.048522,166.220559 L113.831086,166.069114 C113.24074,166.060535 112.656105,165.95136 112.101998,165.746222 C111.540788,165.53011 111.129106,165.03918 111.011735,164.446083 C110.949272,163.971746 111.150857,163.511697 111.270104,163.048791 C111.554027,161.95153 111.466011,160.625674 112.314939,159.877022 C112.664752,159.607466 113.065771,159.412964 113.493218,159.305533 C115.03636,158.782172 116.611664,158.360286 118.209173,158.04254 C119.523734,157.782513 120.278968,158.754045 120.86101,159.87988 Z" id="Path" fill="#3F3D56"></path>
                    <path d="M95.9719962,166.565521 C96.0263244,167.161976 96.0426228,167.84524 95.6242957,168.262478 C95.3638247,168.485465 95.0491276,168.630723 94.7142984,168.682517 C92.7068714,169.164162 90.4685496,169.197765 88.7218981,168.072061 C88.5401618,167.965055 88.3797731,167.823471 88.2492427,167.654822 C88.1036051,167.425075 88.0210033,167.158976 88.0101987,166.884751 C87.9477212,166.092277 88.1840489,165.311005 88.3986453,164.546535 C88.9064437,162.732608 89.2921851,160.884712 89.5531195,159.016023 C89.5748508,158.862009 94.6789851,159.856101 95.0185363,160.376949 C95.4450127,161.021008 95.4477291,162.566751 95.5618183,163.334022 C95.7338576,164.405588 95.8705835,165.482754 95.9719962,166.565521 Z" id="Path" fill="#3F3D56"></path>
                    <path d="M115.519616,93.1222177 L116.911039,106.219928 C117.189324,108.896379 117.481523,111.586918 117.289507,114.271821 C117.066879,117.370871 116.209762,120.46992 116.571532,123.540797 C116.713457,124.735339 117.036268,125.907343 117.083576,127.110338 C117.0924,127.91031 117.052437,128.710071 116.963914,129.505058 C116.33499,137.452711 118.324726,145.338383 119.437865,153.22969 C119.616869,154.203062 119.656235,155.197487 119.554744,156.182239 C119.410036,157.182387 119.12062,158.495257 120,158.968566 L111.740509,162 C110.68581,160.661774 111.384305,158.579776 111.18394,156.880934 C111.000272,155.35113 110.170983,153.987549 109.728511,152.514091 C109.32778,151.189952 109.244295,149.79538 109.113501,148.420529 C108.392744,140.934916 106.18038,133.643698 105.662771,126.141181 C105.646138,125.416635 105.552844,124.695981 105.384486,123.991567 C105.106201,123.059035 104.549632,122.24483 104.143336,121.368645 C103.519978,120.052957 103.213865,118.610491 102.913317,117.184928 L101.146209,108.803408 C99.3596214,111.496764 99.4319754,115.001507 99.0785538,118.230153 C98.583207,122.737861 97.4756337,127.169502 96.5739912,131.620864 C96.3645214,132.578629 96.2075148,133.547387 96.10369,134.522701 C95.8699308,137.134354 96.3346663,139.771364 96.0869929,142.3802 C95.8087082,145.403182 94.553644,148.352913 94.8569744,151.375895 C95.0239452,153.049382 95.6584344,154.632714 96.0869929,156.255489 C96.5155514,157.878264 96.7270478,159.658809 96.0730787,161.205516 C93.7874239,160.355942 91.3320874,160.081359 88.9183782,160.405398 C86.2663247,157.658513 85.7960235,153.826961 85.6151384,149.981323 C85.4342533,146.135684 85.8711604,142.284411 85.3980763,138.475397 C85.258934,137.34847 85.0418719,136.249717 85.0056949,135.125607 C84.8888153,131.522257 86.6002664,128.149928 87.4518177,124.648002 C88.2181458,121.495515 88.291295,118.211114 87.6660969,115.026863 C87.2486698,112.922326 86.5306952,110.879771 86.2746732,108.747061 C85.9268173,105.757887 86.5167809,102.746175 87.1095274,99.7936259 C87.5074746,97.8017823 87.9026389,95.8099388 88.3534602,93.8293644 C88.8376756,91.7022896 89.413725,89.5301377 90.707749,87.7890354 C92.7781874,85.0027082 96.4543288,83.7659057 99.8911452,84.0363682 C103.327962,84.3068307 106.536585,85.8901633 109.375089,87.8622856 C111.612244,89.3759342 113.67347,91.1404165 115.519616,93.1222177 Z" id="Path" fill="#192534"></path>
                    <path d="M106.76889,43.1846829 C106.608024,43.4449148 106.496203,43.7327939 106.439037,44.0338733 C106.36733,44.6259958 106.725865,45.1690155 107.012694,45.6860396 C107.380182,46.3502992 107.662569,47.0587913 107.853102,47.7945736 C107.989633,48.2499669 108.031616,48.7287867 107.976438,49.2012257 C107.906446,49.5560652 107.780565,49.8973531 107.603561,50.2121667 C107.049982,51.2866525 106.229652,52.280263 105.113889,52.7279655 C104.249818,53.048368 103.307522,53.0867688 102.420568,52.8377248 C101.539557,52.5865784 100.706687,52.1882151 99.9567101,51.6592565 C99.3245955,51.2558435 98.756096,50.7592989 98.2701578,50.1861711 C97.8061951,49.5594621 97.4154463,48.8810323 97.1056337,48.1642892 C96.5090301,46.907834 95.9038218,45.5647267 96.0128166,44.1869586 C96.0185051,44.0620298 96.0416801,43.9385354 96.0816555,43.8201315 C96.1747959,43.6061735 96.3049338,43.4105755 96.4660058,43.2424509 C97.6897495,41.7821405 98.3171697,39.9083587 98.221397,38 L102.40049,38.9560613 C103.32121,39.1669147 104.24193,39.3777681 105.151176,39.6406127 C105.896931,39.8572429 107.044245,40.1576368 107.528986,40.8277463 C108.013726,41.4978557 107.098743,42.5723415 106.76889,43.1846829 Z" id="Path" fill="#FBBEBE"></path>
                    <circle id="Oval" fill="#FBBEBE" cx="104.5" cy="34.5" r="7.5"></circle>
                    <path d="M102.955708,49.9042316 C103.270733,49.2190768 103.951413,48.7856116 104.573026,48.3549429 C105.194639,47.9242742 105.82469,47.3733539 105.945637,46.626675 C105.953065,46.4577785 105.995183,46.2921806 106.069397,46.1400753 C106.308479,45.7821169 106.876649,45.9610961 107.216989,46.2239718 C108.043931,46.8643818 108.606477,47.7732605 109.154958,48.6597668 C109.864505,49.7378253 110.471848,50.8790546 110.969167,52.0687612 C111.759544,54.1410048 111.855176,56.4034137 111.942371,58.6154847 C112.021127,60.6290007 112.097071,62.6732787 111.604844,64.6252706 C111.295444,65.8613456 110.761026,67.0610656 110.730086,68.3334958 C110.637266,72.9561929 109.02276,77.3747418 108.910251,81.9974389 C108.901809,83.3341227 108.969423,84.6702112 109.112767,85.9993019 L109.377164,89 C105.287459,88.7669542 101.209004,88.409928 97.1418011,87.9289214 C97.0236666,86.5474257 96.6270721,85.2078783 96.2642303,83.8711274 C94.778496,78.4060756 93.8262009,72.8113268 93.4205632,67.1645379 C93.2039832,64.1666364 92.9817778,61.179921 92.6470633,58.1932056 C92.3461015,55.4777556 91.7554288,52.7455263 92.1098324,50.0356694 C92.2953122,48.803946 92.6850074,47.6113439 93.2630505,46.5064234 C93.4457644,46.0662318 93.7599271,45.692381 94.1631232,45.4353447 C94.3645667,45.3385598 94.5784746,45.2698631 94.7987995,45.2311966 C95.436465,45.1027609 96.0837245,45.0269956 96.7339557,45.004676 C96.8928923,44.9913678 97.0529412,45.0065229 97.2064938,45.0494208 C97.480541,45.1852507 97.7055536,45.4021305 97.8506083,45.6702549 C99.1038114,47.5435137 100.877384,49.0144478 102.955708,49.9042316 Z" id="Path" fill="#F2F2F2"></path>
                    <path d="M99,49.5812697 C99.5396643,50.3267951 100.682824,50.5033669 101.181869,51.262906 C101.349986,51.5803553 101.477614,51.9163343 101.561955,52.2634796 C101.866604,53.2023932 102.481705,54.0179868 102.855988,54.9344785 C103.395653,56.2517603 103.41016,57.7091784 103.415963,59.1245557 C103.469017,60.2519625 103.379377,61.3814095 103.149032,62.4878282 C102.974947,63.1801019 102.690607,63.8387427 102.481705,64.5226082 C102.126919,65.6855685 101.995157,66.9013745 102.092915,68.1100989 C102.09296,68.3712101 102.165071,68.6275884 102.301817,68.8528216 C102.498604,69.0779082 102.755501,69.2465783 103.044581,69.3404962 C103.894697,69.702048 104.785433,70.072008 105.713888,69.9879261 C105.904339,69.9821306 106.088887,69.922707 106.244848,69.8169598 C106.352422,69.7222781 106.440952,69.6092036 106.505976,69.4834353 L107.08626,68.5361135 C107.611417,67.6700708 108.159786,66.7003272 107.956686,65.7109645 C107.809187,65.2003047 107.587437,64.7124406 107.298064,64.2619545 C106.927228,63.5308241 106.61113,62.7749531 106.352201,62.0001537 C105.426647,59.4300529 104.489488,56.8235166 104.280586,54.1104768 C104.15773,53.0779709 104.27672,52.0319937 104.628757,51.0498987 C104.901272,50.4454667 105.243897,49.8728515 105.650057,49.3430378 C105.461983,49.0992358 105.137397,48.9932332 104.834757,49.0767788 C104.542894,49.163891 104.260201,49.2774386 103.990444,49.4159088 C103.137426,49.7634469 102.191563,49.6373242 101.329841,49.3990924 C100.993276,49.3037997 100.459415,48.9786833 100.111244,49.0011051 C99.992286,49.0151188 99.0203099,49.6149024 99,49.5812697 Z" id="Path" fill="#48889B"></path>
                    <path d="M105.979679,49.0130719 C105.800625,48.8875817 105.523092,48.772549 105.364928,48.9189542 C105.311802,48.9824279 105.273286,49.0543534 105.251527,49.130719 C105.096348,49.496732 104.639761,49.6771242 104.224954,49.8183007 C103.810146,49.9594771 103.362512,50.0379085 103.111837,49.7686275 C102.94947,49.5534707 102.965174,49.2709085 103.150632,49.0705882 C103.334194,48.8768437 103.555456,48.7130971 103.804178,48.5869281 C105.176864,47.7381011 106.111953,46.4491774 106.406423,45 C106.79136,45.2680306 107.046184,45.6538024 107.119653,46.0797386 C107.218133,46.4954248 107.23007,46.924183 107.328549,47.3398693 C107.474776,47.9359477 107.800057,48.4928105 107.874662,49.096732 C107.913457,49.4183007 107.874662,49.7424837 107.874662,50.0640523 C107.888069,50.3784514 107.929981,50.6914195 108,51 C107.301691,50.351634 106.809294,49.5908497 105.979679,49.0130719 Z" id="Path" fill="#F2F2F2"></path>
                    <path d="M100.026024,47.2893753 C99.7644237,47.0128257 99.5028237,46.7508313 99.2412238,46.4684596 C98.0932969,45.2216557 97.2265019,43.6905328 96.7115519,42 C96.376704,42.2911049 96.007848,42.6753633 96,43.1644194 C96.029829,43.5104807 96.1498478,43.8393099 96.345312,44.1105102 C97.3345572,45.8441191 97.9876656,47.7884518 98.2628398,49.8190765 C98.5502571,49.3194361 99.050942,49.0226543 99.5839197,49.0360044 C99.9972477,49.0360044 101.851992,50.2586448 101.985408,49.9500737 C102.181608,49.4668396 100.339944,47.6183238 100.026024,47.2893753 Z" id="Path" fill="#F2F2F2"></path>
                    <path d="M107.116026,45.2698732 C109.740978,47.8843283 112.954334,49.8307884 116.486506,50.9459522 C116.837648,51.0225632 117.163324,51.1878905 117.432483,51.4261714 C117.63355,51.6774387 117.768786,51.974925 117.825943,52.2916827 C118.506823,54.955224 118.735644,57.7109003 118.961674,60.4498248 C119.020858,60.902808 119.011451,61.36213 118.933769,61.8123071 C118.76913,62.5438038 118.250098,63.1357018 117.739438,63.6857203 C116.137694,65.402783 114.30992,67.198021 114.039242,69.5321096 C114.018594,69.9820784 113.965436,70.429963 113.880184,70.8722561 C113.740659,71.3915629 113.430915,71.8494463 113.241161,72.3547932 C112.309136,74.8424403 114.415959,77.854978 113.132332,80.1723147 C113.827191,81.5080208 114.303884,82.9463985 114.544322,84.432864 C114.587389,84.996386 114.716311,85.5500083 114.926619,86.0745435 C115.308917,86.8730475 116.095837,87.3811864 116.715326,88.0289239 C118.604491,89.9665524 118.836102,92.9316266 118.947722,95.6370475 C119.017484,97.1614642 118.99516,98.9120306 117.831524,99.9115565 C117.159015,100.495079 116.240942,100.684933 115.361937,100.830115 C114.192719,101.025553 112.920254,101.165152 111.884981,100.587214 C111.142709,100.174002 110.63763,99.4508812 110.154874,98.7528882 C109.239592,97.4211175 108.32152,96.0921389 107.453676,94.7268646 C106.080753,92.5742542 104.785964,90.1145269 105.182214,87.5905843 C105.070594,90.1731583 104.526448,92.7752762 103.259563,95.0256056 C101.992679,97.275935 99.9528277,99.1549321 97.4776594,99.8975967 C95.0024911,100.640261 92.1087486,100.11537 90.264232,98.3061727 C89.6620882,97.6859293 89.1450374,96.9883391 88.7266697,96.2317375 C87.6767174,94.4327409 86.9105458,92.482395 86.4552074,90.4495635 C86.3352162,89.9218808 86.2459203,89.3327748 86.5110173,88.8609315 C86.6365895,88.6375737 86.8291336,88.4616795 86.9602868,88.2411137 C87.4011849,87.4900733 86.9770298,86.5435948 86.5500842,85.7785944 C85.8998991,85.8400178 85.4338865,85.0750175 85.4924869,84.4216961 C85.5510873,83.7683746 85.9417565,83.2016043 86.2180154,82.6069143 C87.0272587,80.8535559 86.8486671,78.8126244 86.4579979,76.9224594 C86.0673287,75.0322944 85.4841154,73.1532972 85.5287633,71.2240446 C85.5762017,69.1831131 84.1084018,67.3459955 82.9894136,65.6401007 C82.3643429,64.6796623 81.636024,63.7862313 81.0918776,62.7783294 C79.9573824,60.6573081 79.6950673,58.1770182 80.3607681,55.8654068 C80.7515238,54.6784177 81.2639826,53.5350667 81.8899589,52.4536171 L82.810822,50.7253864 C83.158545,49.887905 83.8837961,49.265932 84.7641679,49.0502032 L91.1348661,46.5374285 C91.9494684,46.259039 92.7228782,45.8721293 93.4342333,45.387136 C94.2127812,44.8008219 94.793204,43.99115 95.5354754,43.3657483 C95.753971,43.1360976 96.0557548,43.0042489 96.3726237,43 C96.9697894,43.0530475 97.181867,43.8068799 97.2432579,44.395986 C97.3827826,45.7137968 98.3594555,46.8305855 98.6915244,48.1121007 C100.488603,55.1897496 104.292046,61.7173801 105.335691,68.9430035 C106.507699,66.1259038 107.679706,63.3032201 109.180992,60.6508468 C109.417816,60.27006 109.616887,59.8670319 109.775367,59.4475068 C109.955576,58.8423704 110.02274,58.2091789 109.973492,57.5796776 C109.898149,55.7621039 109.415393,53.9864097 108.938219,52.2302593 C108.318729,49.8403313 107.76063,47.6374654 107.116026,45.2698732 Z" id="Path" fill="#3F3D56"></path>
                    <path d="M119.354749,66.5777883 C119.477765,67.7855551 119.597986,68.9961571 119.818857,70.1897482 C120.076074,71.5704581 120.467491,72.9199816 120.856112,74.2695051 C121.045899,75.0280936 121.317815,75.7630781 121.666904,76.4610631 C121.793461,76.6636873 121.893991,76.881866 121.966058,77.1103087 C122.103054,77.6773353 121.78992,78.244362 121.65572,78.8113887 C121.25312,80.5124687 122.46092,82.4035026 121.700454,83.9713313 C121.471195,84.4476337 121.071391,84.8417173 120.920416,85.3520413 C120.744278,85.9389139 120.920416,86.5654783 121.012678,87.1721969 C121.250324,88.8732769 120.677178,90.6027082 120.11242,92.2385801 L119.150653,95 C118.272761,93.3442821 117.386481,91.6715535 116.173089,90.2511517 C115.739735,89.7408277 115.267239,89.2673604 114.867435,88.7286851 C114.271302,87.8821779 113.800354,86.9518761 113.469518,85.9672652 C112.615973,83.6278299 112.128272,81.1674812 112.024072,78.6753023 C111.954687,77.9667848 112.035719,77.251415 112.261718,76.5773036 C112.446752,76.1874029 112.653994,75.8087457 112.882393,75.4432503 C113.631676,74.0738809 113.785447,72.4521846 113.771468,70.887191 C113.757489,69.3221974 113.592535,67.7515335 113.771468,66.1950453 C113.91747,64.8954705 114.296475,63.6338988 114.889802,62.4725153 C115.239787,61.7204499 115.759946,61.0628125 116.40794,60.55313 C116.891529,60.1859947 117.481401,59.9915916 118.08544,60 C118.999678,60.0541465 118.78999,60.850819 118.868274,61.6191401 L119.354749,66.5777883 Z" id="Path" fill="#3F3D56"></path>
                    <path d="M77.982724,62.4113276 C77.4239768,64.1111592 76.9200087,65.8261004 76.4708198,67.5561513 C76.0325867,69.2559829 75.6409159,70.965258 75.2958073,72.6839766 C75.1185404,73.439676 75.0193817,74.2127145 75,74.9900814 C75.0350432,75.8951328 75.18515,76.7914712 75.44645,77.655984 C77.2103381,84.2314992 80.4258734,90.297065 84.0467743,96 C85.0814454,94.6652709 86.3103826,93.5049818 87.6895869,92.5606741 C87.8024471,92.491541 87.8966456,92.3941062 87.9634826,92.2773688 C88.0337934,92.0541523 88.0015047,91.8099296 87.8758359,91.6144345 C86.8761167,89.4953111 85.2929997,87.6283294 84.7945095,85.3250576 C84.5863488,84.3674858 84.578132,83.3702512 84.3425817,82.4183455 C84.0385575,81.1859676 83.3592962,80.0584127 83.2031756,78.7948712 C83.0360993,77.4180076 83.4770713,75.9164897 82.8525892,74.695444 C84.1262041,74.1826614 84.8629835,72.8256292 85.4025579,71.525258 C85.9790948,70.1949088 86.3913562,68.7947517 86.6296106,67.3578376 C87.0046567,64.6030717 86.4833802,61.7975166 85.147835,59.3827943 C84.4955134,58.1782577 83.6583598,57.0913207 82.6690791,56.1644465 C82.3431432,55.8613099 81.5734963,54.9915627 81.0996568,55 C80.4669578,55.0142271 80.264275,56.0737888 80.0835038,56.5497417 C79.3522024,58.4932158 78.6291178,60.439523 77.982724,62.4113276 Z" id="Path" fill="#3F3D56"></path>
                    <path d="M88.8422588,94.5158364 C88.9250104,94.5743139 89.0187954,94.654056 88.9967284,94.7497465 C88.9746613,94.845437 88.8946681,94.8693597 88.8229501,94.9092307 C88.45005,95.1641547 88.1716535,95.5274397 88.0285353,95.9458779 C87.5701555,96.941395 87.170473,97.9610585 86.8313964,99 C86.2141257,98.1088245 85.4880742,97.2922723 84.6688227,96.5678662 C84.039911,96.0096716 83.3365229,95.4807157 83,94.7258239 C83,94.7045593 84.4453936,93.6758864 84.5777961,93.5642474 C84.9832786,93.2160403 85.4935798,92.251161 85.9128543,92.0385154 C86.3872964,91.7992891 86.8396715,92.7375877 87.2010199,93.1150336 C87.6981197,93.633673 88.2479515,94.1029562 88.8422588,94.5158364 Z" id="Path" fill="#FBBEBE"></path>
                    <path d="M111.763537,33.7230939 C111.743854,33.3429889 111.696052,32.9222621 111.414865,32.6756291 C111.168062,32.4994447 110.870769,32.41457 110.571304,32.4347992 C108.931983,32.3796695 107.236426,32.6640228 105.689897,32.0953162 C104.672,31.7210143 103.803132,31.0014263 102.810541,30.5545854 C101.817951,30.1077444 100.546986,29.9887803 99.7456025,30.7402855 C99.1382384,31.3205984 98.9723381,32.2113787 98.7614478,33.0325215 C98.2971377,34.8448586 97.470553,36.5369243 96.3348035,38 C95.5727866,37.7562686 95.0272838,37.05409 94.6757999,36.3170926 C93.480755,33.8043377 94.0684359,30.8041199 94.9176208,28.1404837 C95.1988079,27.2468018 95.5109255,26.3618246 95.8230431,25.479749 L96.5091395,23.5298976 C97.4096498,23.4386386 98.2462543,23.0090585 98.8598633,22.3228468 L99.1551097,23.0627457 C99.917632,23.0344407 100.65352,22.766133 101.264013,22.2938311 C101.50021,22.7522783 102.107574,22.874144 102.599651,22.7261643 C103.091728,22.5781845 103.516321,22.2938311 104.005586,22.1458513 C105.313106,21.7106167 106.707794,22.3808781 108.079987,22.4563188 C108.660657,22.4417321 109.241667,22.4591663 109.820535,22.5085469 C111.440172,22.7783924 112.584603,24.3510404 113.079492,25.9643103 C113.408481,27.0378892 113.681233,28.358101 114.707565,28.738206 C114.73006,29.144425 114.032717,29.2227673 113.973667,29.6086753 C113.966719,29.7373361 113.996017,29.8653211 114.058023,29.977174 L115,32.0633989 C114.549705,32.1800476 114.075958,32.1558066 113.639055,31.9937614 C113.214462,33.0238168 111.805715,34.5094179 111.763537,33.7230939 Z" id="Path" fill="#192534"></path>
                    <path d="M159.990189,37.8051999 C160.465991,39.3429964 160.840539,40.9103419 161.111423,42.4971577 C161.313245,43.6862731 161.430974,45.0072008 160.749825,46 C163.34548,42.0933072 166.056062,38.0688246 170,35.5475634 C168.375784,33.785578 167.575915,31.4163459 167.79958,29.0298648 C167.822004,28.7942853 164.562018,30.0254685 164.312544,30.1656944 C163.168886,30.8023198 162.120533,31.5931937 161.004905,32.2746915 C160.42747,32.6252562 158.022425,33.4553933 158,33.957402 C158,34.2799215 158.955851,35.2671116 159.135249,35.6064582 C159.487232,36.3114954 159.773426,37.047531 159.990189,37.8051999 L159.990189,37.8051999 Z" id="Path" fill="#FBBEBE"></path>
                    <path d="M172.271322,186.186522 C170.967109,185.248007 169.264065,185.116192 167.83635,185.843255 C166.568015,186.512626 165.714059,187.779853 164.560518,188.63802 C162.57822,190.108346 159.960355,190.225629 157.639274,191.020864 C157.023306,191.232546 156.36814,191.547207 156.107753,192.165087 C155.931365,192.689918 155.972843,193.265631 156.222547,193.758418 C156.610557,194.642013 157.290493,195.357955 158.143249,195.780832 C159.184795,196.290011 160.383133,196.312896 161.536674,196.327199 L171.560158,196.447342 C174.64,196.484529 177.73944,196.521717 180.799683,196.913613 C181.513646,197.005151 182.286407,197.10527 182.916374,196.747701 C183.941121,196.175589 184.058715,194.728147 183.980319,193.535294 C183.773959,190.51302 183.112899,187.541295 182.02042,184.724777 C181.900026,184.412976 181.740435,184.058267 181.401652,184.001056 C181.16125,183.989928 180.924884,184.067042 180.735286,184.218458 C177.907432,185.934793 174.326416,186.904522 171.319371,185.531454" id="Path" fill="#FFFFFF"></path>
                    <path d="M176.890326,121.657656 C175.779685,128.23127 176.504378,134.98599 177.753849,141.531306 C177.983892,142.834542 178.287039,144.123269 178.661798,145.391146 C179.108831,146.834342 179.711353,148.220941 180.13062,149.672626 C181.196835,153.35136 181.046899,157.284775 180.888632,161.124806 L180.161163,178.59879 C180.100077,180.064624 180.044545,181.564415 180.477695,182.962334 C180.652621,183.528293 180.866419,184.235742 180.42494,184.617764 C180.252202,184.744167 180.050436,184.823106 179.839077,184.846977 C177.852292,185.220079 175.800151,184.906361 174.008214,183.955592 L173.811075,166.303331 C173.74999,160.861635 173.686128,155.397301 172.864254,150.023521 C172.211752,145.75053 171.078899,141.534136 171.003931,137.210209 C170.926186,132.682537 172.014614,128.214291 173.125254,123.825279 C173.364042,122.885787 174.235895,122.198147 174.952258,121.561443 C175.202261,121.310194 175.506572,121.122171 175.840771,121.012463 C176.173963,120.91908 176.684857,121.371847 176.890326,121.657656 Z" id="Path" fill="#3F3D56"></path>
                    <path d="M176.890326,121.657656 C175.779685,128.23127 176.504378,134.98599 177.753849,141.531306 C177.983892,142.834542 178.287039,144.123269 178.661798,145.391146 C179.108831,146.834342 179.711353,148.220941 180.13062,149.672626 C181.196835,153.35136 181.046899,157.284775 180.888632,161.124806 L180.161163,178.59879 C180.100077,180.064624 180.044545,181.564415 180.477695,182.962334 C180.652621,183.528293 180.866419,184.235742 180.42494,184.617764 C180.252202,184.744167 180.050436,184.823106 179.839077,184.846977 C177.852292,185.220079 175.800151,184.906361 174.008214,183.955592 L173.811075,166.303331 C173.74999,160.861635 173.686128,155.397301 172.864254,150.023521 C172.211752,145.75053 171.078899,141.534136 171.003931,137.210209 C170.926186,132.682537 172.014614,128.214291 173.125254,123.825279 C173.364042,122.885787 174.235895,122.198147 174.952258,121.561443 C175.202261,121.310194 175.506572,121.122171 175.840771,121.012463 C176.173963,120.91908 176.684857,121.371847 176.890326,121.657656 Z" id="Path" fill="#000000" opacity="0.1"></path>
                    <path d="M156.110508,100.756615 C155.700555,102.476179 156.57032,104.257862 156.473372,106.025426 C156.417973,107.095566 156.00525,108.162881 156.196377,109.213255 C156.387503,110.263629 157.124311,111.054233 157.517645,112.017076 C157.804495,112.821184 157.956201,113.668862 157.966377,114.524421 C158.079945,116.636463 157.988537,118.7598 157.910978,120.863372 C157.78079,124.392855 157.683842,127.942102 158.140884,131.440526 C158.53887,134.47138 159.347078,137.431372 160.542434,140.235997 C160.904745,140.998936 161.204013,141.791345 161.437129,142.604985 C161.590184,143.363106 161.691988,144.131045 161.741824,144.903384 C162.005101,147.415248 162.666482,149.866921 163.700181,152.162825 C164.406519,153.735562 165.639149,154.986411 166.029712,156.65515 C166.400886,158.2533 166.15159,159.938981 166.420276,161.556896 C166.616943,162.75692 167.096145,163.892002 167.36206,165.077908 C167.708304,166.611115 167.699995,168.200794 167.874502,169.765061 C168.373093,174.282799 170.38685,178.800537 169.18469,183.182742 C168.943704,184.063701 168.56976,184.958778 168.738727,185.856678 C168.821826,186.297158 169.032342,186.73199 168.938164,187.169646 C168.860605,187.542359 168.57807,187.830365 168.434032,188.183313 C168.157037,188.844033 168.450652,189.628989 168.943704,190.140059 C169.469634,190.616476 170.081027,190.984662 170.744174,191.224316 C172.78563,192.113745 174.899104,193.017293 177.115067,192.997528 C177.38406,193.012139 177.652638,192.961833 177.898964,192.850701 C178.297838,192.638932 178.494504,192.178688 178.663471,191.75515 L179.799153,188.892033 C179.93765,188.544732 180.076148,188.138136 179.885021,187.816247 C179.751921,187.639734 179.590907,187.487053 179.408589,187.364473 C178.491734,186.576693 178.699481,185.105604 178.943237,183.922522 C179.565896,180.883888 179.910846,177.792951 179.97366,174.689395 C180.095538,168.500094 179.095584,162.3475 178.098401,156.240083 C177.752157,154.11957 177.403143,151.984939 176.713424,149.951957 C176.023706,147.918975 175.007133,145.962229 175.17333,143.850187 C175.350607,141.568729 174.768916,139.177152 175.17333,136.926754 C175.577743,134.676355 176.217602,132.473958 176.630325,130.226384 C177.164926,127.309619 177.297884,124.336383 177.461312,121.377264 C177.53056,120.16877 177.619199,118.920745 178.17319,117.847782 C178.497274,117.220946 178.968166,116.684464 179.33103,116.077393 C180.267275,114.499009 180.416852,112.542263 181.311547,110.938466 C181.73535,110.178922 182.31981,109.509732 182.630045,108.696539 C182.847877,108.055102 182.962009,107.381844 182.96798,106.703087 C183.055772,104.999019 182.962903,103.290268 182.690984,101.606514 C177.975676,99.1606591 172.746337,97.923962 167.456239,98.0036181 C165.431402,98.0375012 163.384407,98.2464465 161.484218,98.9608138 C159.672669,99.6469453 158.021776,100.609788 156.110508,100.756615 Z" id="Path" fill="#3F3D56"></path>
                    <path d="M167.455252,189.966776 C166.621643,191.01077 166.678351,192.502597 166.145296,193.731999 C165.498824,195.223826 164.058439,196.179394 162.691775,197.049389 L154.185568,202.469028 C153.720562,202.754272 153.221531,203.105122 153.051407,203.635676 C152.970573,203.974348 152.985303,204.328995 153.093938,204.659703 C153.506518,206.114155 154.626093,207.257653 156.06544,207.694701 C156.818242,207.875109 157.59143,207.954715 158.364951,207.931453 L162.189909,207.982797 C163.355138,208.028628 164.522146,207.982849 165.68029,207.84588 C166.74073,207.691848 167.772817,207.386637 168.827586,207.192671 C170.747154,206.841821 172.720594,206.873197 174.642997,206.533757 C175.82016,206.300931 176.982772,205.999007 178.124871,205.629533 C179.514218,205.210224 180.929084,204.7738 182.119953,203.94374 C182.447796,203.743023 182.713807,203.454677 182.888347,203.110827 C183.089661,202.640174 182.97908,202.101063 182.865664,201.601885 L181.039665,193.529476 C180.936624,192.857249 180.693097,192.214635 180.325143,191.644012 C179.919681,191.102048 179.190982,190.74264 178.558687,190.973688 C178.297776,191.093251 178.051372,191.242556 177.824318,191.418669 C176.888635,192.037649 175.68926,192.140337 174.583453,191.94637 C173.868932,191.818011 172.924743,191.621192 172.349156,191.144834 C171.912504,190.782574 171.782076,190.220643 171.410638,189.809892 C170.884001,189.265787 170.152523,188.972164 169.398212,189.002082 C168.6439,189.032001 167.937672,189.382648 167.455252,189.966776 Z" id="Path" fill="#FFFFFF"></path>
                    <circle id="Oval" fill="#FBBEBE" cx="162" cy="27" r="10"></circle>
                    <path d="M154.31608,27.7141066 C155.287355,27.1627486 155.287355,25.5740416 156.281086,25.04542 C157.274818,24.5167983 158.403293,25.4347811 159.040516,26.36129 C159.969318,27.7181817 160.614144,29.2530896 160.935344,30.8716262 C161.025173,31.3320386 161.109387,31.8350817 161.45186,32.1562336 C161.794332,32.4773854 162.243476,32.5171742 162.681392,32.562647 C163.963325,32.6914867 165.247129,32.8089581 166.532804,32.9150614 C167.964451,33.0315855 169.474699,33.1253732 170.77441,32.5029639 C171.287342,32.2707836 171.727981,31.9013121 172.048857,31.4343524 C172.306083,30.985972 172.489986,30.4984229 172.593444,29.9905901 C173.264354,27.407165 173.940877,24.7924774 173.99702,22.1209487 C174.019477,21.0182326 173.924034,19.8757278 173.399097,18.9094301 C173.093117,18.3410198 172.643973,17.8465028 172.517651,17.2212514 C172.391329,16.596 172.798366,15.8002255 173.438397,15.8684347 C172.859863,15.8925221 172.2836,15.7816709 171.754106,15.5444408 C171.246012,15.2602356 170.869853,14.6491945 171.049511,14.0921524 C169.623478,14.2768857 168.584832,12.8501757 167.4732,11.9265089 C167.292444,11.7450732 167.048403,11.6429762 166.793869,11.6423037 C166.598559,11.6916283 166.409995,11.765128 166.232439,11.8611417 C165.671008,12.0600853 165.084314,11.6820924 164.508848,11.5172534 C162.964914,11.0795775 161.002715,12.1368207 159.857397,11 C159.966876,11.7247232 159.088238,12.2107141 158.363993,12.1965038 C157.639748,12.1822935 156.893045,11.9122986 156.2081,12.1567151 C156.40898,12.528643 156.435364,12.9719473 156.280052,13.3656057 C156.124739,13.7592641 155.803948,14.0621679 155.405255,14.1916242 L155.74492,14.9419258 C155.031029,15.0864145 154.45986,15.6283357 154.271166,16.3402153 C153.897815,17.8322925 153.990451,19.9524632 154.080279,21.4871711 C154.125194,22.1607374 154.773646,27.461164 154.31608,27.7141066 Z" id="Path" fill="#192534"></path>
                    <path d="M162.559872,39.4026432 C157.493395,45.159618 156.203747,53.263385 155.123456,60.8932805 L153.532332,72.1590116 C153.119197,75.0812193 152.694897,78.003427 152.334801,80.9340967 C152.08357,82.9395886 151.849089,84.9761078 152.122651,86.9787791 C152.337592,88.5583508 152.859593,90.0815093 153.295058,91.6018471 C154.428149,95.5895119 154.992126,99.7201938 154.969927,103.868914 C155.307692,102.864758 156.477308,102.458582 157.504561,102.232929 C166.123962,100.343216 175.116712,101.31363 183.146795,105 C184.556476,101.008761 184.291289,96.6423732 184.684883,92.4226602 C185.243172,86.4061844 187.166479,80.5758724 187.735934,74.5706792 C187.945293,72.3338928 187.970416,70.0858238 187.992748,67.8377547 C188.009496,66.1876664 188.026245,64.5206541 187.685688,62.9044138 C187.306052,61.116113 186.504906,59.4491007 185.675846,57.827219 C183.384046,53.3187223 180.837771,48.9470107 178.049613,44.7336977 C176.646445,42.6125586 175.182796,40.5337294 173.658666,38.4972101 C172.886366,37.4648472 172.098247,36.4437669 171.29431,35.4339693 C170.515496,34.4551989 170.177731,33.6061791 168.94112,34.1928772 C166.604679,35.2985774 164.259863,37.4704885 162.559872,39.4026432 Z" id="Path" fill="#48889B"></path>
                    <path d="M165.867881,88.0087516 C164.627286,88.0526664 163.385076,88.0141846 162.149801,87.8935713 C161.23359,87.8058149 160.297765,87.6741803 159.403969,87.8935713 C159.01533,87.9893616 158.651621,88.1640856 158.336457,88.4063979 C158.09782,88.6143508 158.007609,88.9408586 158.106641,89.2381871 C158.205672,89.5355157 158.475157,89.7472519 158.793161,89.7775921 L159.751401,89.8598637 C160.359406,89.9119691 160.992629,89.9723016 161.466145,90.4083414 C161.660595,90.5796782 161.784191,90.8147935 161.813576,91.069257 C161.872416,91.7082334 161.306438,92.0565167 160.7993,92.3225284 C160.078327,92.6538765 159.411671,93.0882627 158.82118,93.6114509 C158.358786,94.048681 158.06819,94.6311264 158.000233,95.2568839 C157.995851,95.3704089 158.053655,95.4776047 158.151887,95.5381204 C158.250119,95.5986362 158.373867,95.6032859 158.47655,95.5503194 C159.597298,95.0018418 160.328586,93.3756055 161.558606,93.647102 C160.439782,93.9938556 159.481506,94.7152681 158.852001,95.6846965 C158.532286,96.1612526 158.589526,96.790471 158.990234,97.2042433 C159.390942,97.6180157 160.029825,97.707617 160.533122,97.4206283 C160.715231,97.3162709 160.891101,97.2018183 161.059874,97.0778297 C161.893239,96.4175381 162.63958,95.6584843 163.281756,94.8181018 C162.385158,96.6692139 161.477352,98.8357006 162.50844,100.675843 C162.613452,100.882648 162.833089,101.009484 163.068814,100.999445 C163.393831,100.966536 163.489094,100.667616 163.54233,100.404347 C163.710442,99.5569487 163.75247,98.6629302 164.178354,97.9087734 C165.164612,96.1591296 167.596634,95.9891016 169.44867,95.1362188 C171.670552,94.1270199 173.191967,91.9550484 173.805577,89.6349879 C174.020278,88.9583791 174.057852,88.2398158 173.914849,87.545288 C173.502975,85.9848691 171.536062,85.6256162 170.272419,86.379773 C168.722986,87.3423513 167.823586,87.9484191 165.867881,88.0087516 Z" id="Path" fill="#FBBEBE"></path>
                    <path d="M163.548918,55.7116093 C165.54062,58.7853094 168.997645,60.5169314 171.962436,62.6750613 C172.685777,63.145834 173.316501,63.745296 173.823254,64.4436473 C174.571565,65.598062 174.676841,67.0652491 174.523195,68.4243876 C174.329716,70.2185641 173.752122,71.9444993 173.180219,73.6562176 L171.936828,77.3668362 C171.148683,79.7211597 170.334931,82.1238208 168.835464,84.1028174 C168.45135,84.6060967 168.004639,85.1434966 168.021711,85.7747283 C168.05485,86.1393941 168.18017,86.4896647 168.385908,86.7926604 C169.355497,88.3736599 170.925302,89.4940532 172.736354,89.8976378 C173.27315,90.0341207 173.835599,90.0341207 174.372395,89.8976378 C175.140623,89.6701669 175.718216,89.044622 176.253131,88.4531978 C178.81389,85.6297156 181.37465,82.766426 183.224087,79.4538814 C185.030845,76.2209517 186.112055,72.6297553 187.107906,69.0726796 C187.518014,67.7631927 187.803805,66.4180188 187.961492,65.0549753 C188.172044,62.495928 187.500556,59.9368807 186.402274,57.625208 C185.303993,55.3135353 183.793145,53.2208033 182.236772,51.1877823 C180.76788,49.1908651 179.135725,47.3191836 177.357102,45.5919989 C174.261429,42.7002755 170.47435,40.9999307 166.33161,42.6405644 C163.406653,43.8006658 162.311217,46.2203872 162.049451,49.3196778 C161.827838,51.5574275 162.355192,53.8054364 163.548918,55.7116093 Z" id="Path" fill="#000000" opacity="0.1"></path>
                    <path d="M164.56066,55.6909801 C166.5521,58.7667846 170.011516,60.4995921 172.973072,62.6591995 C173.693937,63.1348995 174.321632,63.7385776 174.825111,64.4403777 C175.573324,65.5955827 175.678586,67.060929 175.52496,68.4238432 C175.328661,70.2192481 174.753989,71.9463649 174.179316,73.6592551 L172.936088,77.3581875 C172.148047,79.7141228 171.334401,82.1155835 169.835131,84.0987803 C169.453913,84.6024041 169.007261,85.1373267 169.024331,85.7718358 C169.055684,86.1362628 169.181166,86.486291 169.38848,86.7876195 C170.356475,88.3703849 171.925124,89.4926262 173.735509,89.897568 C174.273198,90.034144 174.836491,90.034144 175.37418,89.897568 C176.142307,89.6727868 176.71698,89.0439683 177.254668,88.4549844 C179.815092,85.6267239 182.375515,82.7643193 184.224709,79.4495069 C186.03123,76.2143638 187.112298,72.6207088 188.108018,69.0583524 C188.519183,67.7492303 188.80496,66.4039734 188.961492,65.0407428 C189.172016,62.4799435 188.500616,59.9191442 187.405324,57.6030435 C186.310032,55.2869428 184.796537,53.1956234 183.240369,51.1612106 C181.766601,49.1733634 180.130883,47.3109026 178.349961,45.5928948 C175.257538,42.702037 171.470957,40.9976828 167.328761,42.642285 C164.401344,43.8031807 163.308897,46.2217133 163.04432,49.3259711 C162.835499,51.5567325 163.368502,53.7940726 164.56066,55.6909801 L164.56066,55.6909801 Z" id="Path" fill="#48889B"></path>
                    <path d="M227,156.514421 C227.002129,157.266537 226.924714,158.016776 226.769,158.75263 C226.74013,158.891076 226.708374,159.041059 226.676618,159.159315 C225.856725,162.44452 223.544283,164.847133 220.784364,165 C220.691982,165 220.5996,165 220.49567,165 C217.576969,165 215.108631,162.4849 214.294513,159.020869 C214.271417,158.928571 214.251209,158.836274 214.231,158.73244 C214.075286,157.996586 213.997871,157.246347 214,156.494231 C214,151.801493 216.907198,148 220.49567,148 C224.084142,148 227,151.830336 227,156.514421 Z" id="Path" fill="#3F3D56"></path>
                    <path d="M227,156.181979 C227.002131,156.905955 226.924647,157.628124 226.768795,158.336446 C226.739899,158.469712 226.708115,158.614084 226.67633,158.727915 C226.578087,158.727915 226.482733,158.727915 226.387379,158.727915 C225.671827,158.690894 224.960591,158.598042 224.260699,158.450278 C223.640585,158.634439 223.006967,158.773648 222.365179,158.866734 C221.873106,158.93791 221.377251,158.982402 220.879971,159 L220.377196,159 C219.781911,159 219.187283,158.96203 218.597257,158.886169 C217.643148,158.763738 216.706064,158.540269 215.8031,158.219838 C215.308772,158.377967 214.805112,158.507759 214.294775,158.608531 C214.271659,158.519687 214.251432,158.430843 214.231205,158.330893 C214.075353,157.622571 213.997869,156.900402 214,156.176426 C214,151.659263 216.909782,148 220.501445,148 C224.093107,148 227,151.673145 227,156.181979 Z" id="Path" fill="#000000" opacity="0.1"></path>
                    <path d="M240,140.458481 C240.002487,138.46496 239.534052,136.498901 238.63255,134.719878 L231.249202,137.011421 L237.731257,133.207961 C235.528766,130.034413 232.002388,128.029235 228.143508,127.75615 C227.840289,127.297035 227.507535,126.858038 227.147342,126.441923 L216.543894,129.735842 L225.241512,124.632078 C221.862605,122.044425 217.412593,121.30965 213.378444,122.673278 C209.344295,124.036906 206.257973,127.319122 205.150769,131.423175 L214.233459,141.856239 L204.380624,134.744938 C199.222097,138.395812 197.520868,145.26569 200.381566,150.893877 C203.242265,156.522064 209.802084,159.21106 215.801653,157.214866 C218.427371,158.177997 221.296824,158.257206 223.971889,157.440401 C227.749202,158.269945 231.699774,157.347134 234.715609,154.930784 C237.731444,152.514433 239.487765,148.864761 239.491988,145.00537 C239.491988,144.726932 239.491988,144.448494 239.464084,144.170057 C239.825663,142.966117 240.006213,141.715305 240,140.458481 L240,140.458481 Z" id="Path" fill="#6B5915"></path>
                    <path d="M240,142.907935 C236.081526,142.174751 232.063305,142.124161 228.127164,142.758453 C223.671345,143.486485 219.11738,145.086494 214.759707,143.918321 C212.202308,143.231812 209.992626,141.642876 207.494114,140.759826 C205.08347,139.929593 202.486679,139.776264 199.992972,140.316917 C198.052213,144.900262 199.004472,150.180418 202.428377,153.820935 C205.852283,157.461452 211.115778,158.790286 215.889786,157.219433 C218.528475,158.176961 221.412103,158.25571 224.100382,157.443656 C227.896356,158.268375 231.866443,157.350932 234.897176,154.948637 C237.927909,152.546342 239.692907,148.917899 239.69715,145.080957 C239.69715,144.804139 239.69715,144.527321 239.669108,144.250503 C239.804377,143.80934 239.914843,143.361134 240,142.907935 Z" id="Path" fill="#6B5915" opacity="0.1"></path>
                </g>
            </g>
        </g>
    </g>
</svg>