<?xml version="1.0" encoding="UTF-8"?>
<svg width="153px" height="492px" viewBox="0 0 153 492" version="1.1" xmlns="http://www.w3.org/2000/svg" xmlns:xlink="http://www.w3.org/1999/xlink">
    <title>undraw_product_iteration_kjok</title>
    <g id="Final" stroke="none" stroke-width="1" fill="none" fill-rule="evenodd">
        <g id="Inscription-Candidat" transform="translate(-928.000000, -205.000000)" fill-rule="nonzero">
            <g id="undraw_product_iteration_kjok" transform="translate(928.000000, 205.000000)">
                <path d="M152.840197,472.86287 C153.06629,496.56838 3.68587,498.74062 0.840183049,472.8644 C0.6141,449.16045 149.99454,446.98821 152.840197,472.86287 Z" id="Path" fill="#E6E6E6"></path>
                <polygon id="Path" fill="#9F616A" points="35.966 390.569 24.864 396.624 31.929 419.837 43.03 420.846 49.086 407.726"></polygon>
                <polygon id="Path" fill="#9F616A" points="70.28 436.994 70.28 448.095 87.437 447.086 87.198 437.943"></polygon>
                <polygon id="Path" fill="#2F2E41" points="31.929 257.348 37.984 333.042 57.16 444.058 87.437 440.021 77.345 352.217 81.382 271.478"></polygon>
                <path d="M112.66831,200.83104 L40.00271,201.84026 L31.92871,257.34868 L81.38171,280.56133 L93.49264,324.96806 L31.92871,390.56887 L56.15066,420.84622 C56.15066,420.84622 90.46497,374.42099 115.69608,348.18063 C140.92719,321.94027 128.81626,242.20999 128.81626,242.20999 L112.66831,200.83104 Z" id="Path" fill="#2F2E41"></path>
                <circle id="Oval" fill="#9F616A" cx="69.27084" cy="35.31486" r="22.20337"></circle>
                <path d="M61.19687,50.45354 L61.19687,72.65687 L76.33555,96.87873 C76.33555,96.87873 99.54816,79.72159 94.50194,75.68461 C89.45572,71.64763 88.44648,40.36106 88.44648,40.36106 L61.19687,50.45354 Z" id="Path" fill="#9F616A"></path>
                <polygon id="Path" fill="#6B5915" points="61.197 68.62 46.058 86.786 52.114 212.941 99.548 211.932 107.622 101.925 97.53 73.666 90.607 64.247 78.354 82.749"></polygon>
                <path d="M36.97497,134.22087 L25.87328,176.60915 L36.97497,218.99739 L18.80857,243.21925 L2.66067,166.51668 C2.66067,166.51668 14.77167,103.94359 15.78086,96.87883 C16.79005,89.81407 18.80858,88.80483 18.80858,88.80483 L26.88258,89.81408 L36.97497,134.22087 Z" id="Path" fill="#2F2E41"></path>
                <polygon id="Path" fill="#2F2E41" points="117.714 150.368 124.779 163.489 126.798 185.692 122.761 210.923 136.89 234.136 151.019 170.553 135.881 88.804 129.825 88.804"></polygon>
                <path d="M31.92878,389.55968 C31.92878,389.55968 17.79941,393.59668 12.75313,394.60588 C7.70685,395.61508 15.78086,414.79076 15.78086,414.79076 C15.78086,414.79076 20.82706,441.03111 21.83632,446.07732 C22.84558,451.12353 29.91032,468.28075 38.99349,470.29918 C48.07666,472.31761 42.02122,434.97563 42.02122,434.97563 C42.02122,434.97563 46.05822,422.86473 46.05822,418.82774 C46.05822,414.79075 40.00275,416.80925 40.00275,416.80925 C23.85485,414.79076 31.92878,389.55968 31.92878,389.55968 Z" id="Path" fill="#2F2E41"></path>
                <path d="M65.23389,467.27141 C66.24314,473.32689 64.22463,473.32689 80.37256,475.34541 C96.52049,477.36393 92.4835,464.24373 92.4835,464.24373 C91.8083579,458.058506 90.4545414,451.966372 88.4465,446.07735 C85.41876,438.00335 69.27086,448.09584 69.27086,448.09584 C69.27086,448.09584 64.22465,461.21593 65.23389,467.27141 Z" id="Path" fill="#2F2E41"></path>
                <path d="M88.47277,41.06593 L88.99877,50.04155 C88.99877,50.04155 95.51118,35.31484 96.52042,20.17619 C97.52966,5.03754 80.3725,2.00981 70.2801,1.00057 C60.1877,-0.00867 43.03051,7.05602 43.03051,15.12999 C43.03051,23.20396 61.1969,21.18547 68.26162,19.16699 C75.32634,17.14851 78.35405,34.30566 78.35405,34.30566 L82.39105,35.31491 L88.47277,41.06593 Z" id="Path" fill="#2F2E41"></path>
                <polygon id="Path" fill="#6B5915" points="55.24 75.767 61.197 68.62 78.354 82.749 61.197 94.86"></polygon>
                <polygon id="Path" fill="#6B5915" points="97.53 73.666 90.465 64.583 78.354 82.749 93.493 93.851"></polygon>
                <path d="M33.94726,148.35024 L37.98426,186.70152 L29.91033,209.91417 L24.8641,232.11754 C24.8641,232.11754 24.86416,253.31169 45.04899,254.32091 C65.23382,255.33013 82.39099,190.73851 82.39099,190.73851 C82.39099,190.73851 85.41871,204.86791 87.43721,212.94188 C89.45571,221.01585 123.77,253.31169 123.77,253.31169 C123.77,253.31169 131.84394,252.30241 138.90866,236.15453 C145.97338,220.00665 124.77925,204.86797 124.77925,204.86797 L118.72375,183.67381 L120.74224,157.43346 L134.87174,88.80487 L92.9881,67.10606 L97.5297,125.13762 L82.39104,170.55362 L59.68304,70.13382 L52.11371,75.68466 L19.81788,88.80487 L33.94726,148.35024 Z" id="Path" fill="#2F2E41"></path>
            </g>
        </g>
    </g>
</svg>