<?xml version="1.0" encoding="UTF-8"?>
<svg width="197px" height="503px" viewBox="0 0 197 503" version="1.1" xmlns="http://www.w3.org/2000/svg" xmlns:xlink="http://www.w3.org/1999/xlink">
    <title>Group 2</title>
    <defs>
        <linearGradient x1="50.0024316%" y1="100.001132%" x2="50.0024316%" y2="0.00297279996%" id="linearGradient-1">
            <stop stop-color="#808080" stop-opacity="0.25" offset="0%"></stop>
            <stop stop-color="#808080" stop-opacity="0.12" offset="54%"></stop>
            <stop stop-color="#808080" stop-opacity="0.1" offset="100%"></stop>
        </linearGradient>
    </defs>
    <g id="Final" stroke="none" stroke-width="1" fill="none" fill-rule="evenodd">
        <g id="Inscription-Entreprise" transform="translate(-310.000000, -192.000000)" fill-rule="nonzero">
            <g id="Group-2" transform="translate(310.000000, 192.000000)">
                <path d="M182.000014,483.60014 C182.226107,507.30565 32.845687,509.47789 30,483.60167 C29.773917,459.89772 179.154357,457.72548 182.000014,483.60014 Z" id="Path-Copy" fill="#000000" opacity="0.2"></path>
                <path d="M0.889062759,262.17799 C0.889062759,262.17799 9.00342081,265.473849 18.9637953,269.424826 C19.3050087,270.562551 19.5670957,271.722466 19.7481833,272.896284 C19.9239944,275.192579 24.4815588,278.427653 24.4815588,278.427653 C24.4815588,278.427653 32.9340151,279.954014 39.2970242,281.743773 C44.2400207,283.094534 44.9229791,280.393011 44.2873544,279.339417 L45.7682248,279.906737 C46.0995611,293.576445 46.4782311,303.545066 46.4782311,303.545066 C46.4782311,303.545066 48.6420599,303.545066 52.0568523,303.707157 C52.097424,304.139401 52.1379958,304.585152 52.1853296,305.057919 C53.4903888,318.565536 55.8908864,340.853103 57.7504268,342.703647 C60.4552128,345.31737 59.258345,364.579232 58.2170024,367.983151 C57.1756598,371.38707 58.2170024,395.883133 58.2170024,395.883133 C58.2170024,395.883133 62.4026588,410.849572 62.0510366,427.180281 C61.6994144,443.510989 66.5815532,452.020788 66.5815532,452.020788 L68.3329021,452.14911 C68.3329021,452.601615 68.2788064,453.047367 68.2585205,453.499872 C68.1773769,454.978956 68.1165192,456.45804 68.0962333,457.802048 C67.9875325,459.854203 67.2826164,461.830282 66.0676438,463.488754 C63.2645968,467.490471 61.3319923,472.03432 60.3943552,476.827526 C60.1895274,477.899203 60.0450452,478.981513 59.9615894,480.069354 C59.9615894,480.339506 59.9277796,480.48809 59.9277796,480.48809 C59.9277796,480.48809 61.5506512,485.256278 76.7785965,486.843423 C92.0065417,488.430568 89.8021411,477.428615 89.8021411,477.428615 C89.8021411,477.428615 89.8765228,477.117939 89.9711903,476.55062 C90.6373337,472.83124 90.6579198,469.025125 90.032048,465.298775 C89.4978527,462.394637 89.9576663,457.369804 90.6203389,452.763707 C90.6879586,452.284186 90.7623402,451.81142 90.8299598,451.345407 C92.1040894,451.07937 93.3000981,450.524833 94.3258958,449.724493 C99.0930811,445.381794 94.3258958,410.856326 94.3258958,410.856326 C94.3258958,410.856326 85.7246762,382.618654 87.8208854,378.5326 C89.9170945,374.446546 92.351402,364.585985 92.351402,364.585985 L92.351402,330.222609 C95.7323845,324.772286 97.2538266,317.316081 97.8826894,310.528504 C97.9232612,310.075999 97.963833,309.630247 97.9976428,309.177742 C100.817382,309.231773 103.522168,309.130465 105.976762,308.96162 L106.652958,310.312382 C110.642517,318.031985 114.699696,325.677296 115.693705,326.805182 C117.783153,329.189276 116.038566,340.076415 115.693705,345.519985 C115.348845,350.963554 119.527739,361.850693 119.527739,361.850693 C114.300741,364.910168 113.252636,400.975505 113.252636,400.975505 C113.252636,400.975505 117.08667,409.822993 109.06698,419.690307 C101.047289,429.557621 104.184841,448.272424 105.232945,447.59029 C105.510186,447.407937 107.207439,447.684843 109.621461,448.083318 C109.183079,449.699983 108.398674,451.202381 107.322393,452.486801 C104.73256,455.701613 103.846743,460.739954 103.589788,464.765224 C103.43892,466.862956 103.43892,468.968795 103.589788,471.066527 L109.398316,475.118812 C109.398316,475.118812 113.002443,475.118812 113.002443,478.299856 C113.002443,481.4809 121.83357,484.648436 121.83357,484.648436 C121.83357,484.648436 134.965306,488.275231 145.081205,484.648436 C148.360758,483.473273 149.361529,481.453884 148.976097,479.002252 C148.178185,473.876111 141.314791,466.845397 136.365032,461.739518 C133.024622,458.274814 131.50318,453.682225 130.826983,449.704232 C130.752601,449.278742 130.691744,448.860005 130.637648,448.448023 C131.045209,448.218367 131.40914,447.918886 131.7128,447.563274 C135.898457,442.457395 140.428973,428.510781 140.428973,428.510781 C140.428973,428.510781 138.359812,414.260246 142.890329,401.306441 C146.271311,391.722787 150.375824,369.259621 152.282698,358.257667 C152.979631,354.26595 153.10712,350.195773 152.661368,346.16835 C151.782313,338.138072 150.42992,323.259432 150.910019,311.480791 C151.072306,307.637874 150.957353,301.525677 150.693636,294.359887 L150.693636,294.25858 C153.175278,289.57819 158.557802,281.939633 167.537691,281.311529 C180.554474,280.399765 173.812795,273.26099 173.812795,273.26099 C173.812795,273.26099 166.178536,219.683028 161.147634,210.173666 C161.071006,210.007893 160.982886,209.847663 160.883918,209.694146 C160.140102,208.512229 159.328666,206.148396 158.469896,202.994368 C153.513376,184.725317 147.170653,139.717938 147.170653,139.717938 L146.393027,128.770015 C154.155762,132.572409 168.558748,139.50857 174.367276,141.534712 C182.481634,144.371312 193.774116,142.554537 196.566807,133.254543 C199.359499,123.954549 187.735681,105.131686 187.735681,105.131686 C186.024904,98.458923 174.211751,84.5663394 168.065125,77.6707011 C167.470072,76.7724446 166.881781,75.8809419 166.307014,75.029962 C164.724714,72.6728829 163.297939,70.59271 162.391836,69.3702707 L162.30393,69.5391159 C162.080786,69.2284407 161.871165,68.938027 161.688592,68.6948899 L161.539828,68.9920574 C159.34219,64.9397724 156.874072,60.7726727 154.960436,58.5371622 C150.511063,53.3502374 131.104224,47.7715917 129.183826,49.3047062 C127.784099,50.4190846 133.592627,55.2818266 137.656568,58.2670098 L133.7752,55.6465322 L125.099599,48.149805 L121.279088,45.5698502 C121.120008,45.4623223 120.952696,45.3674757 120.778703,45.2861903 C122.791804,37.3879835 121.175567,29.0045809 116.369902,22.4177954 C116.099423,22.0463359 115.808659,21.6748764 115.517894,21.3169246 C119.514216,17.9940509 120.778703,12.5032048 120.778703,7.67423182 L120.778703,7.491879 C120.483079,5.68202743 119.678736,3.99330511 118.459349,2.62238321 C118.520207,2.74395176 118.581064,2.87902793 118.63516,3.00735028 C117.219904,1.19870152 115.082223,0.100296303 112.78606,0.000935697059 C109.405078,-0.052124878 106.571814,2.16312425 103.603312,3.68273111 C97.4235437,6.77429885 90.2013004,7.0209153 83.824564,4.35811194 C81.9920715,3.57467018 80.1460551,2.5345837 78.1580373,2.6966751 C76.1700196,2.8587665 74.5944818,4.13523627 73.2420887,5.46573651 C69.9902096,8.5965302 67.4330668,12.3746956 65.7363075,16.5554897 C65.2359221,17.777929 64.7896324,19.081414 63.8226714,19.999932 C63.0863277,20.600104 62.2884845,21.1207931 61.4424597,21.5533079 C58.496595,23.427887 56.4467463,26.4245232 55.7691711,29.8469845 C55.1380348,33.218681 55.4925149,36.7005889 56.7902278,39.8763898 C57.5745435,42.0747371 58.8565635,44.0624757 60.5363564,45.684665 C61.8008439,46.8530738 63.3155241,47.7108075 64.6543931,48.8116782 C65.2621919,49.3062792 65.8297252,49.848286 66.3516464,50.4325922 C60.2703191,51.7769411 54.7102792,54.8550876 50.3460751,59.2935887 C47.0670603,62.4582293 44.3263495,66.1354763 42.231717,70.1807277 C36.5719523,80.8044681 33.1368741,87.4164465 31.0947606,91.6105614 C30.0737039,91.9212366 29.4448411,92.0698204 29.4448411,92.0698204 C29.4448411,92.0698204 21.7767728,98.8709054 21.8917262,118.375904 L21.8917262,118.375904 L15.9614828,157.385901 L15.9614828,177.343404 C15.9614828,177.343404 8.32722431,199.002867 9.57818784,216.927475 C9.57818784,217.170612 9.57818784,217.406995 9.6255216,217.643378 L9.00342081,220.689346 C8.04575403,221.992695 7.56803789,223.586342 7.6510278,225.20089 C7.61229396,225.753187 7.65328534,226.308177 7.77274318,226.848819 L4.66223925,242.193471 L5.25053021,242.814822 L3.6479445,247.319612 C-2.39049029,256.957296 0.889062759,262.17799 0.889062759,262.17799 Z M45.7344149,152.766296 C46.1198469,153.029694 46.3362298,153.16477 46.3362298,153.16477 C46.3362298,153.16477 49.7172124,183.40157 47.6886228,201.380208 L40.5682736,200.893934 L37.1872911,199.853847 L38.3976829,190.243178 C38.3976829,190.243178 42.7321025,164.923151 45.7073671,152.766296 L45.7344149,152.766296 Z M73.7154263,65.0005567 L74.3916228,63.9604702 C74.2496215,64.3319297 74.1076203,64.6966353 73.958857,65.0343258 L73.7154263,65.0005567 Z M41.5758064,201.231624 L45.2610774,201.609837 L47.5939553,202.096111 C47.5533835,202.420294 47.5128117,202.737723 47.47224,203.048398 L41.5758064,201.231624 Z M120.778703,70.5049105 C120.776826,70.1684044 120.754244,69.8323317 120.711083,69.498593 L123.605204,71.2140603 L123.781015,71.3221213 C122.780245,71.0317075 121.752426,70.7750628 120.778703,70.5386795 L120.778703,70.5049105 Z M143.241951,83.8774509 C142.844702,83.2549127 142.415886,82.6530402 141.957178,82.0741841 C143.985767,82.5604583 145.243493,82.8441182 145.243493,82.8441182 C146.862648,82.5631338 148.527957,82.7313327 150.058012,83.3303924 C150.553144,84.336852 151.110973,85.3113123 151.728217,86.2480376 L157.070169,96.5813643 C157.070169,96.5813643 155.907111,96.6961791 153.580995,95.5615393 C151.254879,94.4268995 143.241951,83.8774509 143.241951,83.8774509 Z M41.7516175,278.38713 L43.4218229,279.062511 L43.4218229,279.062511 C43.0499148,279.177326 42.4548619,278.907173 41.7516175,278.38713 Z" id="Shape" fill="url(#linearGradient-1)"></path>
                <path d="M99,57 C101.206122,58.2450067 101.275497,63.5645806 100.93556,67.8322237 C100.692747,70.954727 100.241811,73.5113182 100.241811,73.5113182 L114.595477,107 C114.595477,107 119.916531,83.138482 119.999781,72.4860186 C120.006166,71.6455166 119.872674,70.8094268 119.604344,70.0093209 C117.099911,62.3328895 103.030682,58.0719041 99,57 Z" id="Path" fill="#67647E"></path>
                <path d="M98,56.3000909 C98,56.3000909 98.3660131,56.4300909 99,56.7000909 C98.6960486,56.432317 98.3507165,56.2941842 98,56.3000909 Z" id="Path" fill="#67647E"></path>
                <path d="M104.12082,469.98708 L109.726783,474.01399 C109.726783,474.01399 113.206113,474.01399 113.206113,477.148269 C113.206113,480.282548 121.726099,483.410116 121.726099,483.410116 C121.726099,483.410116 134.405131,486.987355 144.163409,483.410116 C147.326437,482.249023 148.295535,480.262414 147.925393,477.839556 C147.151461,472.785783 140.522561,465.87963 135.7511,460.812434 C132.527504,457.396271 131.040207,452.865997 130.407602,448.94647 C129.941059,446.141756 129.814526,443.291255 130.03073,440.456399 L109.504698,439 C110.680185,442.089453 110.680185,445.501307 109.504698,448.59076 C109.056152,449.695773 108.451037,450.730933 107.707829,451.664635 C105.204326,454.832471 104.342905,459.805706 104.100631,463.745368 C103.960026,465.823818 103.966773,467.909577 104.12082,469.98708 Z" id="Path" fill="#67647E"></path>
                <path d="M61,479.577372 C61,479.577372 62.5476752,484.274543 77.054639,485.84474 C91.5616027,487.414938 89.4559674,476.557761 89.4559674,476.557761 C89.4559674,476.557761 89.5290336,476.24909 89.622027,475.69214 C90.2525292,472.02146 90.2704903,468.270064 89.6751661,464.593395 C89.170345,461.73483 89.6087422,456.775959 90.2397686,452.233124 C90.9837154,446.824666 92,442 92,442 L69.522177,443.677561 C69.522177,443.677561 69.1302764,448.30092 68.9044354,452.97125 C68.8313692,454.427374 68.7715877,455.883497 68.7516606,457.212125 C68.6471484,459.22842 67.9741781,461.1725 66.8120849,462.81518 C64.1508792,466.781919 62.3241532,471.258357 61.4450396,475.96726 C61.2510681,477.023706 61.1135929,478.089944 61.0332119,479.161337 C61,479.429746 61,479.577372 61,479.577372 Z" id="Path" fill="#67647E"></path>
                <path d="M104.11639,469.440947 L109.722918,473.614347 C109.722918,473.614347 113.2026,473.614347 113.2026,476.862643 C113.2026,480.110939 121.723447,483.35228 121.723447,483.35228 C121.723447,483.35228 134.403758,487.05965 144.163021,483.35228 C147.326369,482.14895 148.295564,480.090072 147.925385,477.579077 C147.622512,477.579077 147.333099,477.620811 147.0908,477.627766 C143.092868,477.759924 139.202623,478.872831 135.224882,479.241481 C132.958422,479.414148 130.684199,479.451307 128.41359,479.352772 C127.287031,479.344918 126.162439,479.254265 125.048327,479.081501 C122.356116,478.587648 119.859091,477.147825 117.456293,475.735825 C116.868704,475.450881 116.351021,475.032392 115.941925,474.511628 C115.618451,473.933442 115.390954,473.303355 115.268872,472.647509 C114.420826,469.503548 112.05168,466.985597 109.332548,465.330148 C107.677574,464.357021 105.923756,463.575577 104.102929,463 C103.961336,465.144655 103.965834,467.296944 104.11639,469.440947 L104.11639,469.440947 Z" id="Path" fill="#67647E"></path>
                <path d="M61,479.769193 C61,479.769193 62.5681133,484.326077 77.2666512,485.849378 C91.9651891,487.372678 89.8317475,476.839768 89.8317475,476.839768 C89.8317475,476.839768 89.9057786,476.540316 90,476 C89.32699,476.338511 88.7549315,476.650983 88.4924576,476.7942 C87.1464377,477.55585 85.9417498,478.603933 84.5418891,479.313505 C81.1768392,481.025591 77.1387793,480.517824 73.343003,479.964488 C71.5595266,479.704095 69.7760501,479.443702 67.9993038,479.12472 C66.6448584,478.94495 65.3264558,478.567423 64.0891158,478.005029 C63.169872,477.486767 62.2884092,476.908207 61.4509167,476.273413 C61.2543836,477.298307 61.1150929,478.3327 61.0336505,479.372094 C61,479.625977 61,479.769193 61,479.769193 Z" id="Path" fill="#67647E"></path>
                <path d="M104.11639,469.440947 L109.722918,473.614347 C109.722918,473.614347 113.2026,473.614347 113.2026,476.862643 C113.2026,480.110939 121.723447,483.35228 121.723447,483.35228 C121.723447,483.35228 134.403758,487.05965 144.163021,483.35228 C147.326369,482.14895 148.295564,480.090072 147.925385,477.579077 C147.622512,477.579077 147.333099,477.620811 147.0908,477.627766 C143.092868,477.759924 139.202623,478.872831 135.224882,479.241481 C132.958422,479.414148 130.684199,479.451307 128.41359,479.352772 C127.287031,479.344918 126.162439,479.254265 125.048327,479.081501 C122.356116,478.587648 119.859091,477.147825 117.456293,475.735825 C116.868704,475.450881 116.351021,475.032392 115.941925,474.511628 C115.618451,473.933442 115.390954,473.303355 115.268872,472.647509 C114.420826,469.503548 112.05168,466.985597 109.332548,465.330148 C107.677574,464.357021 105.923756,463.575577 104.102929,463 C103.961336,465.144655 103.965834,467.296944 104.11639,469.440947 L104.11639,469.440947 Z" id="Path" fill="#000000" opacity="0.1"></path>
                <path d="M61,479.769193 C61,479.769193 62.5681133,484.326077 77.2666512,485.849378 C91.9651891,487.372678 89.8317475,476.839768 89.8317475,476.839768 C89.8317475,476.839768 89.9057786,476.540316 90,476 C89.32699,476.338511 88.7549315,476.650983 88.4924576,476.7942 C87.1464377,477.55585 85.9417498,478.603933 84.5418891,479.313505 C81.1768392,481.025591 77.1387793,480.517824 73.343003,479.964488 C71.5595266,479.704095 69.7760501,479.443702 67.9993038,479.12472 C66.6448584,478.94495 65.3264558,478.567423 64.0891158,478.005029 C63.169872,477.486767 62.2884092,476.908207 61.4509167,476.273413 C61.2543836,477.298307 61.1150929,478.3327 61.0336505,479.372094 C61,479.625977 61,479.769193 61,479.769193 Z" id="Path" fill="#000000" opacity="0.1"></path>
                <path d="M109,438 C110.180948,441.015665 110.180948,444.346032 109,447.361697 C114.915969,448.33783 125.943335,450.309748 130,447.708912 C129.53129,444.971185 129.404169,442.188765 129.621378,439.421615 L109,438 Z" id="Path" fill="#000000" opacity="0.1"></path>
                <path d="M69,452.660607 C73.2657463,452.947498 84.7446074,453.514759 91.1708369,451.943379 C91.9439172,446.688059 93,442 93,442 L69.6419327,443.630062 C69.6419327,443.630062 69.2346851,448.122514 69,452.660607 Z" id="Path" fill="#000000" opacity="0.1"></path>
                <path d="M53,294.877334 C53,294.877334 53.3528821,299.089131 53.9161361,304.985647 C55.1851543,318.369053 57.5263911,340.465825 59.345091,342.265105 C61.9509894,344.859572 60.817695,363.930589 59.799766,367.300026 C58.7818369,370.669464 59.799766,394.929415 59.799766,394.929415 C62.3613057,405.063619 63.6154886,415.480008 63.5321725,425.928241 C63.1928628,442.101541 67.9431983,450.525135 67.9431983,450.525135 C67.9431983,450.525135 90.3376372,452.546798 94.9726074,448.247395 C99.6075776,443.947993 94.9726074,409.75494 94.9726074,409.75494 C94.9726074,409.75494 86.5848721,381.808825 88.6207302,377.765499 C90.6565883,373.722174 93.031756,363.950805 93.031756,363.950805 L93.031756,329.919485 C96.3230599,324.528385 97.7820916,317.115622 98.4132076,310.41718 C98.9154628,304.687142 98.9313533,298.9253 98.4607109,293.192615 C98.4607109,293.192615 102.674937,301.750987 106.970598,310.215014 C110.8523,317.863637 114.801865,325.431394 115.792649,326.550048 C117.828507,328.908654 116.131959,339.690854 115.792649,345.081955 C115.45334,350.473055 119.525056,361.255255 119.525056,361.255255 C114.435411,364.287749 113.417482,400.003788 113.417482,400.003788 C113.417482,400.003788 117.149888,408.764325 109.345765,418.535695 C101.541643,428.307064 104.59543,446.838971 105.613359,446.165083 C106.631288,445.491196 127.329178,451.219239 131.400895,446.165083 C135.472611,441.110927 139.883637,427.296232 139.883637,427.296232 C139.883637,427.296232 137.847779,413.144594 142.258804,400.340731 C145.52975,390.852395 149.54039,368.607368 151.399807,357.710607 C152.066509,353.755566 152.178413,349.727892 151.732331,345.742364 C150.87727,337.783753 149.560749,323.052571 150.028996,311.374101 C150.185079,307.566636 150.076499,301.515126 149.818624,294.419091 C148.943205,270.091751 146.29659,233.540092 146.29659,233.540092 L127.906005,221.167517 L115.765505,213 L112.793152,213.451505 L57.4042396,221.949226 L55.2530163,249.079938 L53,294.877334 Z" id="Path" fill="#444053"></path>
                <path d="M127,221 L127.974295,226.307357 C127.974295,226.307357 136.150201,265.133443 137.853515,285.052912 C139.556829,304.972382 146.710746,299.232874 146.710746,299.232874 C147.334692,297.560129 148.100516,295.942781 149,294.398182 C148.12109,270.022153 145.463921,233.397338 145.463921,233.397338 L127,221 Z" id="Path" fill="#000000" opacity="0.1"></path>
                <path d="M70,73.2824619 C70,73.2824619 107.55736,103.211307 100.622661,97.2028397 C96.8266855,93.9048585 99.408754,79.8450439 102.520649,67.8281083 C105.082598,57.9141365 108,49.3821123 108,49.3821123 C108,49.3821123 75.2177903,18.8524199 77.5986587,43.8142655 C78.4369926,52.6133327 77.7394988,58.8688153 76.4853512,63.2883771 C74.1849629,71.3864565 70,73.2824619 70,73.2824619 Z" id="Path" fill="#EFB7B9"></path>
                <path d="M72.2341366,65 L95.9545919,84.08279 L102.85691,76.1746067 C102.85691,76.1746067 108.763638,73.5408379 109.204638,76.5184408 C109.645638,79.4960437 111.322774,97.8361521 107.868274,99.5553224 C104.413774,101.274493 99.963683,102.422898 96.0681828,101.852134 C92.1726827,101.281369 87.8228189,96.8046499 84.9295916,95.0854797 C82.0363642,93.3663094 71.3454547,84.426624 71.3454547,84.426624 L66,76.7522479 L72.2341366,65 Z" id="Path" fill="#000000" opacity="0.1"></path>
                <path d="M72.2341366,66 L95.9545919,85.08279 L102.85691,77.1746067 C102.85691,77.1746067 108.763638,74.5408379 109.204638,77.5184408 C109.645638,80.4960437 111.322774,98.8361521 107.868274,100.555322 C104.413774,102.274493 99.963683,103.422898 96.0681828,102.852134 C92.1726827,102.281369 87.8228189,97.8046499 84.9295916,96.0854797 C82.0363642,94.3663094 71.3454547,85.426624 71.3454547,85.426624 L66,77.7522479 L72.2341366,66 Z" id="Path" fill="#A36468"></path>
                <path d="M53,294.474877 C53,294.474877 53.3532978,298.688165 53.9172154,304.586768 C61.3908226,304.869901 75.8896206,305.746265 86.0673147,308.388839 C90.128726,309.385839 94.2902956,309.926292 98.4735027,310 C98.9763496,304.267933 98.9922588,298.504051 98.521062,292.769338 C98.521062,292.769338 102.740253,301.330739 107.040974,309.797762 C110.719657,309.551661 114.379585,309.08113 118,308.388839 L113.468276,249.962332 C113.468276,249.962332 113.617749,230.352005 112.870388,213 L57.4094282,221.520954 L55.2556705,248.661269 L53,294.474877 Z" id="Path" fill="#000000" opacity="0.1"></path>
                <path d="M94,82.9269725 C94,82.9269725 77.4114517,65.5353629 73.4780846,68.2972896 C69.5447175,71.0592163 67,77.7901825 67,77.7901825 L80.510261,92 L94,82.9269725 Z" id="Path" fill="#000000" opacity="0.1"></path>
                <path d="M94,81.9269725 C94,81.9269725 77.4114517,64.5353629 73.4780846,67.2972896 C69.5447175,70.0592163 67,76.7901825 67,76.7901825 L80.510261,91 L94,81.9269725 Z" id="Path" fill="#A36468"></path>
                <path d="M107,94 L97,82.0119813 C97,82.0119813 98.5714286,70.6797175 102.228571,72.1278428 C105.885714,73.5759681 107,79.3753003 107,79.3753003 L107,94 Z" id="Path" fill="#000000" opacity="0.1"></path>
                <path d="M108,93 L98,81.0119813 C98,81.0119813 99.5793252,69.6797175 103.254846,71.1278428 C106.930366,72.5759681 108,78.3753003 108,78.3753003 L108,93 Z" id="Path" fill="#A36468"></path>
                <path d="M64.4529915,71 C64.4529915,71 83.8383761,91.886073 95.4115385,93.2874611 C96.4581197,93.4154725 97.5047009,93.5906461 98.5377778,93.7995068 C101.562735,94.3924018 108.152821,93.7995068 107.106239,76.5314406 L108.564701,73.4726415 L117.572051,78.9771324 L120.610513,103.676598 L126.012222,167.008561 L134,237.529376 C134,237.529376 109.469487,235.171271 102.602564,241.349506 C95.735641,247.527741 93.8247863,207.662292 93.8247863,207.662292 L75.0335897,126.812977 L55,74.8201301 L64.4529915,71 Z" id="Path" fill="#000000" opacity="0.1"></path>
                <path d="M55,77.8003948 L75.0335897,129.799769 L93.8247863,210.659233 C93.8247863,210.659233 95.7423932,250.522949 102.602564,244.350676 C104.844274,242.32919 108.976581,241.22411 113.520769,240.651356 C119.108645,240.049187 124.737754,239.92295 130.347094,240.274012 C132.588803,240.395301 134,240.530067 134,240.530067 L126.00547,170.000399 L120.603761,106.660485 L117.565299,81.9579189 L108.564701,76.4527371 L107.099487,79.5119201 C107.099487,79.9633855 107.146752,80.4081125 107.167009,80.8595779 C107.801709,96.8158455 101.474957,97.3818618 98.5377778,96.8023689 C97.4979487,96.593482 96.4581197,96.4182865 95.4047863,96.290259 C87.2076923,95.286254 75.094359,84.5252069 68.727094,78.3394579 C66.1005128,75.7789082 64.4462393,74 64.4462393,74 L55,77.8003948 Z" id="Path" fill="#000000" opacity="0.1"></path>
                <path d="M55,75.8003948 L75.0335897,127.799769 L93.8247863,208.659233 C93.8247863,208.659233 95.7423932,248.522949 102.602564,242.350676 C104.844274,240.32919 108.976581,239.22411 113.520769,238.651356 C119.108645,238.049187 124.737754,237.92295 130.347094,238.274012 C132.588803,238.395301 134,238.530067 134,238.530067 L126.00547,168.000399 L120.603761,104.660485 L117.565299,79.9579189 L108.564701,74.4527371 L107.099487,77.5119201 C107.099487,77.9633855 107.146752,78.4081125 107.167009,78.8595779 C107.801709,94.8158455 101.474957,95.3818618 98.5377778,94.8023689 C97.4979487,94.593482 96.4581197,94.4182865 95.4047863,94.290259 C87.2076923,93.286254 75.094359,82.5252069 68.727094,76.3394579 C66.1005128,73.7789082 64.4462393,72 64.4462393,72 L55,75.8003948 Z" id="Path" fill="#48889B"></path>
                <path d="M107,78.0573646 C107,78.5085616 107.047452,78.9530243 107.067788,79.4042212 L107.223701,79.5119698 C109.609842,81.0743235 113.439869,107.459245 113.439869,107.459245 L118.408737,174.687595 L127.560131,224.858005 C127.560131,224.858005 128.75998,230.575412 130.332664,238.744097 C132.583229,238.865314 134,239 134,239 L125.980668,168.492054 L120.55762,105.189792 L117.507155,80.5019094 L108.471002,75 L107,78.0573646 Z" id="Path" fill="#000000" opacity="0.1"></path>
                <path d="M101,72.1955779 C101,72.1955779 106.382189,76.5795243 108.750351,78.1490854 C111.118514,79.7186465 114.919685,106.225286 114.919685,106.225286 L119.851115,173.76377 L128.933558,224.165624 C128.933558,224.165624 137.006841,263.066384 138.688775,283.024165 C140.370709,302.981946 147.434831,297.231399 147.434831,297.231399 C147.434831,297.231399 152.709376,281.671095 165.263331,280.771303 C177.817285,279.871512 171.318293,272.76113 171.318293,272.76113 C171.318293,272.76113 163.964878,219.470471 159.127636,209.978686 C159.052155,209.815706 158.966776,209.657549 158.871982,209.505112 C158.158842,208.327941 157.371697,205.980364 156.544185,202.841242 C151.760765,184.683044 145.645254,139.923492 145.645254,139.923492 L141.830628,84.4476258 C132.068683,68.4475742 101.793873,69.0023329 101.793873,69.0023329 L101,72.1955779 Z" id="Path" fill="#67647E"></path>
                <path d="M55,75.8201581 L74.8553133,127.813386 L93.4792893,208.663292 C93.4792893,208.663292 95.3798315,248.522296 102.178955,242.350753 C104.400715,240.329506 108.49625,239.224557 113,238.65187 C112.919695,224.947811 112.504788,200.355964 110.544018,190.020651 C108.847192,180.576494 108.138423,170.979264 108.42933,161.386309 L84.1104188,108.045583 C84.1104188,108.045583 65.8210453,85.3469721 65.7072805,82.0995008 C65.6671282,80.9002272 66.9653859,78.6768548 68.6116303,76.338945 C66.0084228,73.7786979 64.3688704,72 64.3688704,72 L55,75.8201581 Z" id="Path" fill="#000000" opacity="0.1"></path>
                <path d="M117,307.348184 L112.516528,248.781535 C112.516528,248.781535 112.853125,205.081232 110.045906,190.329762 C108.334841,180.858134 107.619576,171.232304 107.911881,161.610683 L83.4547448,108.112107 C83.4547448,108.112107 65.0563538,85.3463238 64.9419108,82.0892423 C64.8274678,78.8321609 74.5753164,68 74.5753164,68 C74.5753164,68 53.2754594,70.5002492 50.4682406,80.0687706 C47.6610218,89.637292 32.2920036,93.3606362 32.2920036,93.3606362 C32.2920036,93.3606362 24.88687,100.118067 25.001313,119.491619 C25.1157559,138.865172 48.5631017,154.062633 48.5631017,154.062633 C48.5631017,154.062633 52.4878225,190.552757 49.1218527,207.000343 C45.7558829,223.447928 48.6708127,303.401844 48.6708127,303.401844 C48.6708127,303.401844 71.2228105,303.631597 85.3598837,307.348184 C99.496957,311.06477 117,307.348184 117,307.348184 Z" id="Path" fill="#67647E"></path>
                <path d="M84,214.82429 L66.7073973,280.923603 C66.7073973,280.923603 64.3496214,286.821926 52.2239163,282.284231 C40.0982113,277.746536 4.84609222,263.010934 4.84609222,263.010934 C4.84609222,263.010934 1.70014542,257.792925 7.54069334,248.159678 L25.1701211,196 L84,214.82429 Z" id="Path" fill="#B07473"></path>
                <polygon id="Path" fill="#E1E7EF" points="61 243.059843 33.1158722 212.256887 15.3103448 205 8 242.040504 41.8506592 279"></polygon>
                <path d="M30.8153438,254 C30.8153438,254 39.2360756,259.011494 41.4538534,259.184304 C43.6716313,259.357114 51.5055049,274.336297 48.195898,274.218786 C44.8862911,274.101275 37.1888961,270.071343 37.9600004,272.145065 C38.7311047,274.218786 43.7466945,280.439951 45.2070159,279.852397 C46.6673373,279.264842 47.3429066,284.414585 41.1126569,282.617359 C34.8824072,280.820134 26.6118019,279.244105 26.6118019,279.244105 C26.6118019,279.244105 22.1762462,275.960713 22.0056479,273.631232 C21.8350496,271.301751 18,259.025319 18,259.025319 L30.8153438,254 Z" id="Path" fill="#EFB7B9"></path>
                <path d="M165,80.3998199 C165,80.3998199 157.790549,64.6988323 153.48378,59.5014988 C149.177011,54.3041654 130.390587,48.7253763 128.50722,50.2580107 C126.623852,51.7906451 137.95781,60.4006443 139.982937,61.5041411 C142.008063,62.6076378 126.893869,72.8592588 126.5901,73.0840452 C126.286331,73.3088315 114.776862,72.0486655 120.683481,75.9653978 C126.5901,79.88213 144.053441,83.8737911 144.053441,83.8737911 C146.42968,83.4573604 148.871026,84.0461393 150.803863,85.5017894 C154.185824,87.9812512 165,80.3998199 165,80.3998199 Z" id="Path" fill="#EFB7B9"></path>
                <path d="M14.4656894,254.686047 C15.4162145,257.920454 16.6916567,261.042249 18.2710031,264 C19.9517954,262.423256 36,256.932558 36,256.932558 L34.2183602,254.07907 L31.3139511,249.432558 C31.3139511,249.432558 17.0070473,246.209302 14.5732601,249.432558 C13.7530335,250.513953 13.9009432,252.509302 14.4656894,254.686047 Z" id="Path" fill="#000000" opacity="0.1"></path>
                <path d="M14.4656894,254.686047 C15.4162145,257.920454 16.6916567,261.042249 18.2710031,264 C19.9517954,262.423256 36,256.932558 36,256.932558 L34.2183602,254.07907 L31.3139511,249.432558 C31.3139511,249.432558 17.0070473,246.209302 14.5732601,249.432558 C13.7530335,250.513953 13.9009432,252.509302 14.4656894,254.686047 Z" id="Path" fill="#A36468"></path>
                <path d="M148.7483,83.9269103 C149.25578,85.0672346 149.853554,86.1648829 150.535874,87.2093023 C153.084822,91.2425249 156.944657,96 156.944657,96 C156.944657,96 172,89.0498339 172,88.744186 C172,88.4385382 167.431756,81.2159468 163.717575,75.5215947 C162.214689,73.2225914 160.857457,71.1893688 159.996773,70 C159.996773,70 154.375847,81.8006645 148.827748,81.8803987 C147.377827,81.9003322 148.152442,82.4850498 148.7483,83.9269103 Z" id="Path" fill="#000000" opacity="0.1"></path>
                <path d="M148.7483,84.9269103 C149.25578,86.0672346 149.853554,87.1648829 150.535874,88.2093023 C153.084822,92.2425249 156.944657,97 156.944657,97 C156.944657,97 172,90.0498339 172,89.744186 C172,89.4385382 167.431756,82.2159468 163.717575,76.5215947 C162.214689,74.2225914 160.857457,72.1893688 159.996773,71 C159.996773,71 154.375847,82.8006645 148.827748,82.8803987 C147.377827,82.9003322 148.152442,83.4850498 148.7483,84.9269103 Z" id="Path" fill="#A36468"></path>
                <polygon id="Path" fill="#B07473" points="63.0048804 209 65 202.981083 37 201 47.4607125 202.121238 60.784285 204.996561 59.7593948 209"></polygon>
                <path d="M14.4606599,254 C17.4667122,252.666435 25.4872855,249.89287 34,253.455304 L31.1269588,249.285565 C31.1269588,249.285565 16.9745709,246.393043 14.5670688,249.285565 C13.7557007,250.256 13.902013,252.046609 14.4606599,254 Z" id="Path" fill="#000000" opacity="0.1"></path>
                <path d="M12.138862,217.244019 C12.2057706,218.222249 12.2659884,219.200478 12.3262062,220.171962 C12.4934778,223.147129 12.6072225,226.095311 12.680822,228.942297 C13.0153651,242.124785 12.4734052,253 12.4734052,253 C12.4734052,253 22.8442436,246.705598 33.8841684,251.988038 L34.9948517,230.655885 L34.9948517,230.284833 L36.1256077,220.954545 L39.7922009,190.818325 C39.7922009,190.818325 46.7038629,148.990574 48.8248666,147.41866 C50.9458703,145.846746 33.1013374,112 33.1013374,112 L23.954927,119.535742 L18.267693,158.212919 L18.267693,178.000144 C18.267693,178.000144 10.9077431,199.480718 12.138862,217.244019 Z" id="Path" fill="#67647E"></path>
                <path d="M149,84.723467 L151.156092,89.0291863 C153.75014,93.1450472 157.678271,98 157.678271,98 C157.678271,98 173,90.9074292 173,90.5955189 C173,90.2836085 168.350926,82.9130307 164.571028,77.1020047 C163.40539,75.7458726 162.697923,75 162.697923,75 C167.192027,86.1880896 149,84.723467 149,84.723467 Z" id="Path" fill="#000000" opacity="0.1"></path>
                <path d="M136,82.1214246 L142.265571,85.2985712 C142.265571,85.2985712 149.98014,95.8211719 152.214011,96.9548973 C154.447882,98.0886226 155.568171,97.9732135 155.568171,97.9732135 L148.973892,84.7351029 C148.973892,84.7351029 167.086358,86.2014782 162.611908,75 C162.611908,75 182.850911,97.4029564 185.084782,106.459182 C185.084782,106.459182 196.267552,125.236933 193.584224,134.517187 C190.900896,143.797442 180.053541,145.603256 172.224931,142.779126 C164.396321,139.954996 140.360408,127.504383 140.360408,127.504383 L136,82.1214246 Z" id="Path" fill="#67647E"></path>
                <path d="M158,104 C158,104 175.29661,123.166243 173.922227,125.77209 C172.547844,128.377937 158.913965,107.857742 158,104 Z" id="Path" fill="#000000" opacity="0.1"></path>
                <path d="M81.5959732,52.9193732 C81.5959732,52.9193732 57.3483551,45.690241 43.6568712,71.7747387 C29.9653872,97.8592364 29.5067225,99.6682132 30.1912967,100.908074 C30.8758709,102.147934 57.457887,95.264337 58.943413,98.3131744 C60.428939,101.362012 43.8827807,113.896121 43.8827807,113.896121 L108,162 L81.0620053,105.332276 C79.2504138,101.362696 76.8355693,97.6909335 73.9013592,94.4445385 C69.4721642,89.5392979 63.4136825,82.0256075 65.5563998,79.7084911 C67.4458246,77.6759328 70.4716425,72.3709558 74.5517047,66.2665058 C77.543294,61.7881024 82.2942389,56.7405827 81.5959732,52.9193732 Z" id="Path-2" fill="#000000" opacity="0.2"></path>
                <path d="M82.3854757,52.9137452 C82.3854757,52.9137452 58.2367813,45.7288665 44.6011549,71.6536864 C30.9655285,97.5785062 30.508735,99.3764093 31.1905163,100.60868 C31.8722976,101.840951 58.3458663,94.9994916 59.8253318,98.0296654 C61.3047973,101.059839 44.8261427,113.51722 44.8261427,113.51722 L108,162 L81.8536863,105.005799 C80.0494855,101.060519 77.644493,97.4112335 74.7222537,94.1847116 C70.3111285,89.3094987 64.2773638,81.8418039 66.4113394,79.5388718 C68.2930558,77.518756 71.3065293,72.2462537 75.3699459,66.1791725 C78.3493303,61.7281839 83.0808927,56.7115629 82.3854757,52.9137452 Z" id="Path" fill="#67647E"></path>
                <path d="M82.3854757,52.9137452 C82.3854757,52.9137452 58.2367813,45.7288665 44.6011549,71.6536864 C30.9655285,97.5785062 30.508735,99.3764093 31.1905163,100.60868 C31.8722976,101.840951 58.3458663,94.9994916 59.8253318,98.0296654 C61.3047973,101.059839 44.8261427,113.51722 44.8261427,113.51722 L108,162 L80.5992087,102.265175 C79.5386113,99.9430835 78.1016416,97.807392 76.3448932,95.9422124 C72.0292175,91.3498157 63.9978335,82.1448212 66.4113394,79.5388718 C68.2930558,77.518756 71.3065293,72.2462537 75.3699459,66.1791725 C78.3493303,61.7281839 83.0808927,56.7115629 82.3854757,52.9137452 Z" id="Path" fill="#000000" opacity="0.1"></path>
                <circle id="Oval" fill="#444053" cx="77" cy="167" r="5"></circle>
                <circle id="Oval" fill="#444053" cx="77" cy="197" r="5"></circle>
                <path d="M13.4434383,229.322832 C16.2820645,229.983134 29.741996,229.685998 35.8632042,231 L35.8632042,230.636834 L37,221.504852 C30.0985059,220.659665 15.0981825,219.05513 13.0667486,220.738901 C10.436647,222.937708 10.0599573,228.563484 13.4434383,229.322832 Z" id="Path" fill="#67647E"></path>
                <path d="M13.4434383,229.322832 C16.2820645,229.983134 29.741996,229.685998 35.8632042,231 L35.8632042,230.636834 L37,221.504852 C30.0985059,220.659665 15.0981825,219.05513 13.0667486,220.738901 C10.436647,222.937708 10.0599573,228.563484 13.4434383,229.322832 Z" id="Path" fill="#000000" opacity="0.1"></path>
                <path d="M13.4434383,229.322832 C16.2820645,229.983134 29.741996,229.685998 35.8632042,231 L35.8632042,230.636834 L37,221.504852 C30.0985059,220.659665 15.0981825,219.05513 13.0667486,220.738901 C10.436647,222.937708 10.0599573,228.563484 13.4434383,229.322832 Z" id="Path" fill="#000000" opacity="0.1"></path>
                <circle id="Oval" fill="#444053" cx="16" cy="225" r="3"></circle>
                <path d="M73,237 L60.3798057,279.565179 C60.3798057,279.565179 57,281.12285 57,278.341773 C57,275.560696 73,237 73,237 Z" id="Path" fill="#FFFFFF" opacity="0.1"></path>
                <path d="M77.2345812,61.7767628 C78.0376485,62.4212757 78.8767641,63.0195115 79.7478509,63.5685636 C84.0728545,66.293736 87.9210859,70 93.4380196,70 C96.4979323,70.0044339 99.5377051,69.5049526 102.435389,68.5215643 C105.037202,58.404362 108,49.6974364 108,49.6974364 C108,49.6974364 74.7076893,18.5419035 77.1256047,44.015452 C77.9769833,52.9948949 78.5082436,57.2666026 77.2345812,61.7767628 Z" id="Path" fill="#000000" opacity="0.1"></path>
                <path d="M65,40.0001515 C65,55.4640408 77.5362622,68 93.0001515,68 C108.464041,68 121,55.4640408 121,40.0001515 C121,24.5362622 108.464041,12 93.0001515,12 C85.5635608,11.96565 78.421538,14.9044965 73.1630172,20.1630172 C67.9044965,25.421538 64.96565,32.5635608 65,40.0001515 L65,40.0001515 Z" id="Path" fill="#EFB7B9"></path>
                <path d="M108.858394,63.9892045 C109.116708,64.6285865 109.578204,65.1664117 110.172509,65.5206667 L114.635027,68.243266 L122.978293,73.2868814 L136.181048,81.2640975 C136.491325,81.4501418 136.806166,81.6203042 137.125569,81.7745849 C140.26212,83.3592392 143.959918,83.4095106 147.138856,81.9107148 C149.542458,80.8355263 151.281201,78.6785487 151.813549,76.1115782 C152.530175,72.5189233 151.147669,68.8315605 148.240797,66.5824804 C148.169405,66.5216171 148.085212,66.4774277 147.9944,66.453157 C145.184424,65.669 142.540778,64.3844678 140.191839,62.6619374 L131.882795,56.9444787 L124.463517,50.1992388 L120.712812,47.6195759 C119.590296,46.845801 118.117546,46.7926393 116.941574,47.4834459 C113.095048,49.6955579 105.436218,55.3857906 108.858394,63.9892045 Z" id="Path" fill="#E1E7EF"></path>
                <path d="M115,67.9770115 L123.187313,73 C124.893284,66.0586502 129.23209,61.1576776 133,57.4565281 L124.644776,50 C118.291045,53.1791925 115.765672,63.7810197 115,67.9770115 Z" id="Path" fill="#A36468"></path>
                <path d="M137,81.7311081 C140.16303,83.3719848 143.892044,83.4240397 147.097819,81.8720679 C149.521712,80.7587325 151.275133,78.525227 151.811975,75.8671825 C152.53465,72.1470631 151.140473,68.3288756 148.209062,66 C146.11941,66.9032033 144.185232,68.1429641 142.480293,69.6720015 C140.101568,71.775066 138.378642,74.543935 137.524562,77.6362274 C137.186575,78.9741865 137.010409,80.3493934 137,81.7311081 L137,81.7311081 Z" id="Path" fill="#000000" opacity="0.1"></path>
                <path d="M65,40.4610167 C64.9942992,44.4605032 65.8860132,48.4124963 67.6122545,52.0381621 C69.3060745,53.6877503 70.5965097,55.6906447 71.386991,57.8969602 C73.2880358,60.1575466 74.0334095,61.4349786 76.5704154,63 C77.5893207,61.9499643 79.8869864,61.3145923 80.3041222,59.9569028 C81.3640572,56.4590131 80.7622877,52.7203509 80.7075813,49.0753225 C80.7075813,47.4567961 80.9400832,45.5439921 82.3966391,44.7681696 C83.6070166,44.099357 85.1319555,44.580902 86.3218181,45.2363383 C87.5116806,45.8917747 88.6947049,46.7411666 90.0623631,46.8949935 C92.1138503,47.1223898 93.987542,45.7111953 95.1363749,44.0525401 C96.2852077,42.393885 96.9485219,40.4543285 98.0358101,38.7555446 C99.4718512,36.5150225 101.591721,34.7961743 103.6774,33.1241428 C106.063964,31.1979627 108.382144,29.0644506 110.925988,27.3389142 C112.444089,26.3022547 114.263074,25.8207097 115.76066,24.7773621 L116,24.6034708 C108.937344,14.8393742 96.225417,10.6689845 84.5712066,14.2926566 C72.9169962,17.9163286 65.0010893,28.500581 65,40.4610167 L65,40.4610167 Z" id="Path" fill="#000000" opacity="0.1"></path>
                <path d="M120,9.57566973 C119.405535,5.70430641 116.146225,2.06818218 112.169457,2.00097101 C108.882815,1.94720208 106.081312,4.13828618 103.170482,5.63709524 C97.1348713,8.69662953 90.0250813,8.94313787 83.785446,6.30920693 C82.00205,5.53627849 80.1844894,4.50794761 78.237103,4.66925441 C76.2897166,4.83056122 74.7386404,6.08068896 73.3857193,7.35770116 C70.1917712,10.4706163 67.6883791,14.2008701 66.0334815,18.3131217 C65.5483432,19.5229227 65.1042024,20.806656 64.1612574,21.7207279 C63.4367109,22.3056511 62.6537547,22.8168282 61.8243938,23.2464214 C58.9385646,25.130889 56.9460255,28.0792665 56.2965496,31.4260207 C55.6804965,34.7578711 56.0285353,38.1929484 57.300991,41.3396681 C58.0707797,43.4975396 59.3249259,45.457093 60.9702769,47.0727808 C62.213871,48.2220917 63.7034508,49.0891158 65.0085413,50.1577734 C69.3313291,53.7771135 71.4064056,59.3621249 70.4748891,64.8702982 C74.1100104,65.6902745 77.5948071,62.4910229 78.6744108,58.9758787 C79.7540145,55.4607346 79.1322174,51.7103514 79.0775539,48.0406216 C79.0775539,46.4141113 79.3098737,44.498593 80.7652888,43.7189434 C81.9747183,43.0468318 83.4984627,43.5307522 84.6873933,44.1894216 C85.876324,44.8480911 87.0515888,45.6949518 88.4250086,45.8562586 C90.4748891,46.0847766 92.3471132,44.6666209 93.4950462,42.9997839 C94.6429792,41.332947 95.298941,39.3838231 96.3922105,37.6766594 C97.8202939,35.4250852 99.9453366,33.6977582 102.029382,32.017479 C104.414076,30.0817973 106.730441,27.937761 109.26546,26.2037129 C110.789204,25.1619398 112.606765,24.6780193 114.103177,23.6295251 C118.599248,20.4638791 120,14.6568341 120,9.57566973 Z" id="Path" fill="#585268"></path>
                <path d="M98,56.3000909 C98,56.3000909 98.3660131,56.4300909 99,56.7000909 C98.6960486,56.432317 98.3507165,56.2941842 98,56.3000909 Z" id="Path" fill="#000000" opacity="0.1"></path>
                <g id="Group" opacity="0.1" transform="translate(59.000000, 4.000000)" fill="#000000">
                    <path d="M18.9338462,53.3949451 C19.9898901,49.8316484 19.3903297,46.0230769 19.3358242,42.3098901 C19.3358242,40.6610989 19.5674725,38.7125275 21.0186813,37.9221978 C22.2246154,37.2408791 23.743956,37.7314286 24.9294505,38.3991209 C26.1149451,39.0668132 27.2868132,39.9320879 28.6562637,40.0887912 C30.7002198,40.3204396 32.567033,38.8896703 33.7116484,37.1931868 C34.8562637,35.4967033 35.5103297,33.5276923 36.6004396,31.7971429 C38.0243956,29.5147253 40.1432967,27.7637363 42.2213187,26.0604396 C44.5991209,24.1050549 46.9087912,21.9248352 49.4364835,20.167033 C50.9558242,19.110989 52.7681319,18.6204396 54.2602198,17.5575824 C58.7705495,14.3281319 60.1672527,8.44153846 60.1672527,3.29758242 C60.0153326,2.31123392 59.7095615,1.35483715 59.2610989,0.463296703 C60.4622259,1.84819388 61.248569,3.54367241 61.5298901,5.35516484 C61.5298901,10.4991209 60.1672527,16.3857143 55.6228571,19.6151648 C54.1307692,20.678022 52.3184615,21.1685714 50.7991209,22.2246154 C48.2714286,23.9824176 45.9617582,26.1626374 43.583956,28.118022 C41.5059341,29.8213187 39.387033,31.5723077 37.9630769,33.8547253 C36.872967,35.5852747 36.2257143,37.5610989 35.0742857,39.2507692 C33.9228571,40.9404396 32.0492308,42.378022 30.0189011,42.1463736 C28.6562637,41.9896703 27.498022,41.1175824 26.2920879,40.4567033 C25.0861538,39.7958242 23.5668132,39.3257143 22.3813187,39.9797802 C20.9301099,40.7701099 20.6712088,42.7050549 20.6984615,44.3674725 C20.752967,48.0806593 21.3797802,51.861978 20.2964835,55.4525275 C19.2131868,59.0430769 15.7589011,62.2657143 12.1206593,61.4208791 C12.2351135,60.7814698 12.3056812,60.1349782 12.3318681,59.4859341 C15.3637363,59.227033 18.0276923,56.4540659 18.9338462,53.3949451 Z" id="Path"></path>
                    <path d="M1.30813187,41.321978 C2.54813187,42.487033 4.03340659,43.3659341 5.33472527,44.4492308 C6.76752997,45.6564777 7.97011775,47.1129708 8.8843956,48.7483516 C8.23515643,47.9231763 7.50223921,47.1674268 6.69736264,46.4931868 C5.38923077,45.4098901 3.91076923,44.530989 2.67076923,43.3659341 C1.68098884,42.4148557 0.844414921,41.3162778 0.190769231,40.1092308 C0.536203574,40.5375645 0.909465091,40.9426899 1.30813187,41.321978 L1.30813187,41.321978 Z" id="Path"></path>
                </g>
                <path d="M97.5925656,286.633565 C98.1107796,288.092151 98.849057,289.517129 98.9484405,291.056375 C99.1188123,293.671075 97.4292927,296.111015 97.3086127,298.732437 C97.1666363,301.784042 99.1259111,304.519731 101,307 C98.7780688,307 96.3502718,306.274068 95.2215592,304.465958 C94.8349578,303.77001 94.5552816,303.025361 94.390997,302.254553 C92.3820305,294.665872 90.4298545,286.364701 93.9224748,279.280139 C94.4579491,278.054614 95.2417414,276.940259 96.2295918,276 C96.818794,279.575889 96.3218765,283.091284 97.5925656,286.633565 Z" id="Path" fill="#000000" opacity="0.1"></path>
                <path d="M151,232 L156.576037,224.40976 C157.918043,222.574831 159.30702,220.665421 159.790142,218.437777 C160.313525,215.993463 159.702912,213.461125 159.622392,210.989727 C159.622392,210.712118 159.622392,210.427738 159.622392,210.143357 C159.54711,209.980242 159.461955,209.821954 159.36741,209.669391 C158.656147,208.491244 157.871073,206.141723 157.045739,203 C156.232451,203.815252 155.601052,204.796344 155.19377,205.877656 C152.596988,212.269437 154.999179,219.771655 152.851969,226.32594 C152.234646,228.208265 151.228141,230.009339 151,232 Z" id="Path" fill="#000000" opacity="0.1"></path>
                <path d="M136,462 C130.506121,465.592048 123.57962,466.843764 117,465.433567" id="Path" fill="#000000" opacity="0.1"></path>
                <path d="M90,463.300302 C87.090278,465.88852 83.1818415,467.217301 79.2032632,466.97095 C75.2246849,466.7246 71.5310868,464.925108 69,462" id="Path" fill="#000000" opacity="0.1"></path>
                <path d="M119,361.648466 C124.523556,363.016122 130.225334,360.308402 133,355" id="Path" fill="#000000" opacity="0.1"></path>
                <path d="M87,377.955355 C82.7404457,378.235387 78.5032197,377.191844 75,375" id="Path" fill="#000000" opacity="0.1"></path>
                <path d="M109,419 C112.667814,420.567536 115.936503,423.001913 119.507976,424.778935 C123.079449,426.555958 127.215202,427.726192 131,426.483721" id="Path" fill="#000000" opacity="0.1"></path>
            </g>
        </g>
    </g>
</svg>