<svg xmlns="http://www.w3.org/2000/svg" viewBox="0 0 430.43 573.52"><defs><style>.cls-1{fill:#157876;}.cls-2{fill:#dad3d5;}.cls-3{fill:#eaa020;}</style></defs><g id="Calque_4_-_copie" data-name="Calque 4 - copie"><path class="cls-1" d="M353.41,452.43a34.84,34.84,0,0,1,9.8,23.88l.39-.36q5,5.18,10,9.82l53-51.13L287.68,290.72l-52.29,50.47q4.16,4.77,8.79,9.58l-.37.38a35,35,0,1,1-36.65,36.15q-4.84-5-9.69-9.52l-53.7,51.83L282.65,573.52l52.94-51.09c-3.06-3.56-6.34-7.17-9.81-10.78a35,35,0,1,1,27.63-59.22Z"/><circle class="cls-1" cx="390.96" cy="333.67" r="30"/><path class="cls-1" d="M318,350.92c20.46,5.19,41.6-8.7,47.28-31.06l38.29,39.25c-22.49,5.12-36.89,25.92-32.21,46.5"/></g><g id="Calque_4" data-name="Calque 4"><circle class="cls-2" cx="242.74" cy="386.85" r="30"/><path class="cls-2" d="M172.56,368.77c20.62-4.49,41.28,10.11,46.19,32.65l39.61-37.92c-22.3-5.88-36-27.16-30.6-47.57"/><path class="cls-2" d="M220.7,244.12a35,35,0,1,1-35.4-37.29l-.36-.38q5.17-5,9.79-10l-51.21-52.76L0,283,139.1,426.29,282.63,287l-51.17-52.73C227.9,237.35,224.3,240.64,220.7,244.12Z"/></g><g id="Calque_2" data-name="Calque 2"><circle class="cls-3" cx="185.84" cy="242.47" r="30"/><circle class="cls-3" cx="396.43" cy="34.44" r="30"/><path class="cls-3" d="M203.34,171.57c4.67,20.58-9.74,41.37-32.24,46.48l38.28,39.27c5.68-22.35,26.84-36.23,47.29-31"/><path class="cls-3" d="M323.85,53.13c20.56,4.79,41.42-9.52,46.65-32l39.07,38.49c-22.39,5.57-36.38,26.64-31.29,47.13"/><path class="cls-3" d="M318.44,205.5a30,30,0,1,1,32.33-39.79l.49-.46c3.12,14.59,12.85,25.88,24.93,30.84l54.24-52.86L290.84,0,147.61,139.59,287.19,282.82l54.08-52.7A42,42,0,0,0,318.44,205.5Z"/></g></svg>